<svg xmlns="http://www.w3.org/2000/svg" viewBox="0 0 16.37 18.46"><defs><style>.cls-1{fill:#fff;}</style></defs><title>star</title><g id="Layer_2" data-name="Layer 2"><g id="Layer_1-2" data-name="Layer 1"><path class="cls-1" d="M8.18,18.46A1.79,1.79,0,0,0,10,16.67H6.39a1.79,1.79,0,0,0,1.79,1.79"/><path class="cls-1" d="M1.17,15.2h14v-.07l-1.79-1.79V8.18a5.15,5.15,0,0,0-4-5.06L8.94,3V1.92a.76.76,0,0,0-1.51,0V3L7,3.12A5.15,5.15,0,0,0,3,8.18v5.16L1.17,15.13Zm15.2,1.17H0V14.65l1.79-1.79V8.18A6.28,6.28,0,0,1,6.26,2.11V1.92a1.93,1.93,0,0,1,3.85,0v.19a6.28,6.28,0,0,1,4.47,6.07v4.68l1.79,1.79Z"/></g></g></svg>