<svg xmlns="http://www.w3.org/2000/svg" viewBox="0 0 31.96 32.06"><defs><style>.cls-1{fill:#ffab00;}</style></defs><title>co</title><g id="Layer_2" data-name="Layer 2"><g id="Layer_1-2" data-name="Layer 1"><path class="cls-1" d="M16,2.06A13.92,13.92,0,0,0,16,29.9a13.72,13.72,0,0,0,6.39-1.57,1.08,1.08,0,0,1,.75-.08l4.77,1.33-.95-4.45a1,1,0,0,1,.18-.84A13.76,13.76,0,0,0,29.9,16,13.94,13.94,0,0,0,16,2.06m13.28,30A.86.86,0,0,1,29,32l-6-1.67A15.73,15.73,0,0,1,16,32,16,16,0,1,1,32,16a15.76,15.76,0,0,1-2.91,9.16l1.22,5.67a1,1,0,0,1-.31,1,1,1,0,0,1-.7.28"/></g></g></svg>