<svg xmlns="http://www.w3.org/2000/svg" viewBox="0 0 58 57.17"><defs><style>.cls-1{fill:#b1b1b1;}</style></defs><title>fsc</title><g id="Layer_2" data-name="Layer 2"><g id="Layer_1-2" data-name="Layer 1"><polygon class="cls-1" points="19.39 33.38 6.23 46.53 6.23 37.13 0 37.13 0 57.17 20.05 57.17 20.05 50.94 10.64 50.94 23.8 37.79 19.39 33.38"/><polygon class="cls-1" points="51.77 46.53 38.61 33.38 34.21 37.79 47.36 50.94 37.95 50.94 37.95 57.17 58 57.17 58 37.13 51.77 37.13 51.77 46.53"/><polygon class="cls-1" points="37.95 0 37.95 6.23 47.36 6.23 34.21 19.39 38.61 23.8 51.77 10.64 51.77 20.05 58 20.05 58 0 37.95 0"/><polygon class="cls-1" points="20.05 6.23 20.05 0 0 0 0 20.05 6.23 20.05 6.23 10.64 19.39 23.8 23.8 19.39 10.64 6.23 20.05 6.23"/></g></g></svg>