<svg xmlns="http://www.w3.org/2000/svg" viewBox="0 0 24.3 23.2"><defs><style>.cls-1{fill:#fff;}</style></defs><title>icon-1</title><g id="Layer_2" data-name="Layer 2"><g id="Layer_1-2" data-name="Layer 1"><path class="cls-1" d="M17.43,14.11a.66.66,0,0,0-.19.6l1.14,6.55-5.89-3.08a.67.67,0,0,0-.63,0L6,21.29l1.1-6.56a.68.68,0,0,0-.2-.59L2.13,9.51l6.58-1a.68.68,0,0,0,.5-.37l2.92-6,3,6a.7.7,0,0,0,.51.37l6.58.94Zm6.83-5.34a.66.66,0,0,0-.54-.46L16.14,7.23,12.73.37a.68.68,0,0,0-1.21,0L8.16,7.26.58,8.38A.69.69,0,0,0,0,8.84a.65.65,0,0,0,.18.69l5.5,5.33L4.44,22.41a.65.65,0,0,0,.27.66.68.68,0,0,0,.39.13.58.58,0,0,0,.31-.08l6.77-3.59L19,23.08a.68.68,0,0,0,1-.6.39.39,0,0,0,0-.15l-1.31-7.51,5.47-5.36a.66.66,0,0,0,.17-.69"/></g></g></svg>