<svg xmlns="http://www.w3.org/2000/svg" viewBox="0 0 23.52 18.9"><defs><style>.cls-1{fill:#fff;}</style></defs><title>icon-2</title><g id="Layer_2" data-name="Layer 2"><g id="Layer_1-2" data-name="Layer 1"><path class="cls-1" d="M8.71,8.7l6.06-3.17,6-3.14L9.37,16.78ZM20.53,1.19,9.73,6.84l-1.53.8L2,1.3Zm3-.49a.55.55,0,0,0,0-.18s0-.05,0-.07a.53.53,0,0,0-.11-.21,0,0,0,0,0,0,0l0,0a.57.57,0,0,0-.3-.17H23L.59.14A.58.58,0,0,0,.05.5a.57.57,0,0,0,.12.64L7.52,8.62l.8,9.74a.59.59,0,0,0,.42.52l.17,0a.61.61,0,0,0,.46-.22L23.41,1s0,0,0-.06A.62.62,0,0,0,23.5.7"/></g></g></svg>