<svg xmlns="http://www.w3.org/2000/svg" viewBox="0 0 22.53 20.11"><defs><style>.cls-1{fill:none;stroke:#fff;stroke-miterlimit:10;stroke-width:1.33px;}</style></defs><title>icon-4</title><g id="Layer_2" data-name="Layer 2"><g id="Layer_1-2" data-name="Layer 1"><path class="cls-1" d="M11.26,19.45a1.26,1.26,0,0,1-.91-.39l-7-6.89a2.58,2.58,0,0,1-.32-.31c-.14-.15-.36-.41-.66-.79a9.91,9.91,0,0,1-.8-1.19A6.76,6.76,0,0,1,1,8.38,5.54,5.54,0,0,1,.67,6.62,5.9,5.9,0,0,1,2.26,2.26,5.85,5.85,0,0,1,6.59.67,5.13,5.13,0,0,1,8.2.94a6.4,6.4,0,0,1,1.48.74,13.41,13.41,0,0,1,1.11.82l.47.41.48-.42q.47-.37,1.11-.81A6,6,0,0,1,14.33.94a5.07,5.07,0,0,1,1.6-.27,5.87,5.87,0,0,1,4.34,1.59,5.9,5.9,0,0,1,1.59,4.36c0,1.84-.92,3.71-2.73,5.57l-7,6.88a1.28,1.28,0,0,1-.91.38"/></g></g></svg>