<svg xmlns="http://www.w3.org/2000/svg" viewBox="0 0 21.68 22.58"><defs><style>.cls-1{fill:#ffab00;}</style></defs><title>icon-5</title><g id="Layer_2" data-name="Layer 2"><g id="Layer_1-2" data-name="Layer 1"><path class="cls-1" d="M10.84.85a10,10,0,0,1,0,20,9.85,9.85,0,0,1-4.28-1,.42.42,0,0,0-.38,0L3.24,21.39l.51-3.27a.43.43,0,0,0-.11-.36A10,10,0,0,1,10.84.85m-8,17.34-.61,3.9a.43.43,0,0,0,.17.41.39.39,0,0,0,.25.08.45.45,0,0,0,.2,0l3.49-1.81A10.85,10.85,0,1,0,0,10.84a10.75,10.75,0,0,0,2.88,7.35"/><path class="cls-1" d="M10.84,4a1.41,1.41,0,1,1-1.4,1.41A1.41,1.41,0,0,1,10.84,4m0,3.67A2.26,2.26,0,1,0,8.58,5.38a2.26,2.26,0,0,0,2.26,2.26"/><path class="cls-1" d="M8.76,16.63h.49a.42.42,0,0,0,.43-.42v-6a.42.42,0,0,0-.43-.42H8.76V9.21H12v7a.42.42,0,0,0,.42.42h.49v.57H8.76Zm-.42,1.42h5a.43.43,0,0,0,.43-.43V16.21a.43.43,0,0,0-.43-.43h-.48v-7a.42.42,0,0,0-.43-.42H8.34a.42.42,0,0,0-.43.42V10.2a.43.43,0,0,0,.43.43h.48v5.15H8.34a.43.43,0,0,0-.43.43v1.41a.43.43,0,0,0,.43.43"/></g></g></svg>