<svg xmlns="http://www.w3.org/2000/svg" viewBox="0 0 18.22 18.28"><defs><style>.cls-1{fill:#fff;}</style></defs><title>icon-3</title><g id="Layer_2" data-name="Layer 2"><g id="Layer_1-2" data-name="Layer 1"><path class="cls-1" d="M9.11,1.18a7.94,7.94,0,0,0,0,15.87,7.72,7.72,0,0,0,3.64-.9.64.64,0,0,1,.43,0l2.72.76-.54-2.54a.59.59,0,0,1,.1-.48,7.82,7.82,0,0,0,1.59-4.74A7.94,7.94,0,0,0,9.11,1.18m7.57,17.1-.16,0-3.43-1a8.87,8.87,0,0,1-4,.92,9.11,9.11,0,1,1,9.11-9.11,9,9,0,0,1-1.66,5.23l.7,3.23a.6.6,0,0,1-.58.71"/></g></g></svg>