<svg xmlns="http://www.w3.org/2000/svg" viewBox="0 0 31.42 32.72"><defs><style>.cls-1{fill:#fff;}</style></defs><title>io</title><g id="Layer_2" data-name="Layer 2"><g id="Layer_1-2" data-name="Layer 1"><path class="cls-1" d="M15.71,1.24a14.47,14.47,0,0,1,0,28.94,14.31,14.31,0,0,1-6.21-1.4.63.63,0,0,0-.55,0L4.7,31l.74-4.74a.64.64,0,0,0-.17-.53A14.47,14.47,0,0,1,15.71,1.24M4.17,26.36,3.29,32a.64.64,0,0,0,.25.6.69.69,0,0,0,.36.11.59.59,0,0,0,.29-.07L9.25,30a15.75,15.75,0,1,0-5.08-3.67"/><path class="cls-1" d="M15.71,5.76a2,2,0,1,1-2,2,2,2,0,0,1,2-2m0,5.3a3.27,3.27,0,1,0-3.28-3.27,3.27,3.27,0,0,0,3.28,3.27"/><path class="cls-1" d="M12.7,24.1h.7a.62.62,0,0,0,.62-.62v-8.7a.62.62,0,0,0-.62-.62h-.7v-.81h4.7V23.48a.61.61,0,0,0,.61.62h.71v.82h-6Zm-.62,2h7.26a.61.61,0,0,0,.61-.61V23.48a.61.61,0,0,0-.61-.62h-.71V12.73a.62.62,0,0,0-.62-.62H12.08a.62.62,0,0,0-.62.62v2a.62.62,0,0,0,.62.62h.7v7.46h-.7a.62.62,0,0,0-.62.62v2.06a.61.61,0,0,0,.62.61"/></g></g></svg>