<svg xmlns="http://www.w3.org/2000/svg" viewBox="0 0 9.98 8.77"><defs><style>.cls-1{fill:#fff;}</style></defs><title>like</title><g id="Layer_2" data-name="Layer 2"><g id="Layer_1-2" data-name="Layer 1"><path class="cls-1" d="M9.27.71A2.64,2.64,0,0,0,7.32,0a2.25,2.25,0,0,0-.71.12,3.21,3.21,0,0,0-.67.33,6.62,6.62,0,0,0-.53.4A5.14,5.14,0,0,0,5,1.23C4.86,1.1,4.71,1,4.57.85A5.42,5.42,0,0,0,4,.45,2.91,2.91,0,0,0,3.37.12,2.25,2.25,0,0,0,2.66,0,2.64,2.64,0,0,0,.71.71a2.65,2.65,0,0,0-.71,2,2.47,2.47,0,0,0,.13.79,3.75,3.75,0,0,0,.3.69,5,5,0,0,0,.38.56,4.39,4.39,0,0,0,.31.37,1,1,0,0,0,.15.15L4.74,8.67a.33.33,0,0,0,.25.1.3.3,0,0,0,.24-.1L8.7,5.24A3.78,3.78,0,0,0,10,2.67a2.65,2.65,0,0,0-.71-2"/></g></g></svg>