<svg xmlns="http://www.w3.org/2000/svg" viewBox="0 0 163.84 47.57"><defs><style>.cls-1,.cls-2{fill:#fff;}.cls-2{font-size:10.22px;font-family:Sansation-Light, Sansation Light;}.cls-3{fill:#ffac00;}</style></defs><title>logox</title><g id="Layer_2" data-name="Layer 2"><g id="Layer_1-2" data-name="Layer 1"><path class="cls-1" d="M60.27,45.4h-.55l3.22-7.13h.63l3.24,7.13h-.62L65.13,43h-3l.21-.45h2.59l-1.71-3.88Z"/><path class="cls-1" d="M71.35,45.4V38.27h2.94c1.29,0,1.94.57,1.94,1.71s-.7,1.69-2.1,2.1l2.41,3.32h-.72l-2.37-3.3v-.36c1.46-.22,2.19-.79,2.19-1.72s-.47-1.29-1.43-1.29H71.87V45.4Z"/><path class="cls-1" d="M85.69,38.27v.45H83.25V45.4h-.53V38.72H80.33v-.45Z"/><path class="cls-1" d="M101.66,45.12a5.52,5.52,0,0,1-1.91.33q-3.82,0-3.82-3.71c0-2.35,1.24-3.52,3.74-3.52a6.66,6.66,0,0,1,2,.3V39a6.36,6.36,0,0,0-1.89-.3q-3.31,0-3.32,3.07,0,3.25,3.22,3.26a5.52,5.52,0,0,0,1.47-.22V42.16h.52Z"/><path class="cls-1" d="M106.69,45.4h-.56l3.23-7.13H110l3.24,7.13h-.62L111.54,43h-3l.21-.45h2.6l-1.71-3.88Z"/><path class="cls-1" d="M118.29,38.27V45h4.13v.45h-4.66V38.27Z"/><path class="cls-1" d="M127.55,38.27V45h4.13v.45H127V38.27Z"/><path class="cls-1" d="M141,38.27v.45h-4.16v2.84h4V42h-4V45h4.23v.45H136.3V38.27Z"/><path class="cls-1" d="M146.09,45.4V38.27H149c1.29,0,1.94.57,1.94,1.71s-.7,1.69-2.1,2.1l2.41,3.32h-.72l-2.37-3.3v-.36c1.46-.22,2.2-.79,2.2-1.72s-.48-1.29-1.44-1.29h-2.34V45.4Z"/><path class="cls-1" d="M155.19,38.27h.63l2.31,4.14,2.38-4.14h.57l-2.67,4.64V45.4h-.53V42.91Z"/><text class="cls-2" transform="translate(161.35 45.4)"> </text><path class="cls-3" d="M56.71,7.84h2.47l7.93,19.8,8-19.8h2.48L68.33,29.52H65.81Z"/><path class="cls-3" d="M87.24,0V2.48H84.66V0ZM87,7.84V29.52H84.86V7.84Z"/><path class="cls-3" d="M97.31,4.33h1.52l.4,3.51h6.5V9.7H99.41V23.39q0,4.27,3.14,4.27h3.18v1.86h-3.14q-5.28,0-5.28-5.84Z"/><path class="cls-3" d="M113.67,29.52V7.84h1.55l.27,3.6a9.64,9.64,0,0,1,7.26-3.6V9.58c-2.58,0-4.89,1.26-6.91,3.78V29.52Z"/><path class="cls-3" d="M132.91,0V2.48h-2.58V0Zm-.21,7.84V29.52h-2.17V7.84Z"/><path class="cls-3" d="M143.06,29.52V7.84h1.55l.27,2.77A14.66,14.66,0,0,1,153,7.84q7.91,0,7.91,6.84V29.52h-2.17V14.62q0-4.83-5.84-4.83a12.94,12.94,0,0,0-7.68,2.74v17Z"/><path class="cls-1" d="M44.8,20.73,23.66,41.87,2.5,20.71V10.23H5V19.7l6.55,6.55,7.07-7.07L12.44,13l-1.76,1.77h0L8.94,16.51l3.5,3.5V16.52l2.66,2.66-3.54,3.53L7.51,18.66V10.23h5.7l9.19,9.19v6.31l-3.91,3.91L16.83,28l1.66-1.65V27.9l2.56-2.56-2.56-2.56h0L13.29,28l5.2,5.2,3.91-3.91v3.54L20.27,35l3.38,3.38L27,35,24.9,32.81V29.27l3.92,3.91L34,28l-5.19-5.19h0l-2.56,2.56,2.56,2.56V26.33L30.48,28l-1.66,1.66L24.9,25.73V19.42l9.2-9.19h5.7v8.43l-4,4.05-3.54-3.53,2.65-2.66V20l3.51-3.5-1.75-1.74h0L34.86,13l-6.19,6.19,7.08,7.07L42.3,19.7V10.23h2.5Zm2.5,1v-14H33.06l-9.41,9.41-9.4-9.41H0v14L23.66,45.4Z"/><rect class="cls-3" x="19.35" y="3.43" width="8.59" height="8.59" transform="translate(1.46 18.98) rotate(-45)"/></g></g></svg>