<?xml version="1.0" encoding="utf-8"?>
<!-- Generator: Adobe Illustrator 22.1.0, SVG Export Plug-In . SVG Version: 6.00 Build 0)  -->
<svg version="1.1" id="Layer_1" xmlns="http://www.w3.org/2000/svg" xmlns:xlink="http://www.w3.org/1999/xlink" x="0px" y="0px"
	 viewBox="0 0 51.6 51.6" style="enable-background:new 0 0 51.6 51.6;" xml:space="preserve">
<style type="text/css">
	.st0{fill:#FFAB00;}
</style>
<title>m-0</title>
<g id="Layer_2_1_">
	<g id="Layer_1-2">
		<path class="st0" d="M25.8,44.9c-10.5,0-19.1-8.5-19.1-19.1c0-10.5,8.5-19.1,19.1-19.1c3.7,0,7.3,1,10.3,3
			c0.5,0.3,0.6,0.9,0.3,1.4s-0.9,0.6-1.4,0.3c-7.9-5.1-18.4-2.7-23.5,5.2s-2.7,18.4,5.2,23.5s18.4,2.7,23.5-5.2
			c3.9-6.1,3.5-13.9-0.9-19.6c-0.4-0.5-0.3-1.1,0.2-1.5c0.5-0.4,1.1-0.3,1.5,0.2c2.6,3.4,4,7.5,4,11.8
			C44.9,36.4,36.4,44.9,25.8,44.9"/>
		<path class="st0" d="M17.9,51.6c-0.9,0-1.8-0.1-2.6-0.5c-2.2-0.9-3.5-3-4.8-4.9c-0.3-0.5-0.6-0.9-0.9-1.4
			c-0.3-0.5-0.2-1.1,0.2-1.4c0,0,0,0,0.1,0c0.4-0.3,1.1-0.2,1.4,0.2c0,0,0,0,0,0.1c0.3,0.5,0.6,0.9,0.9,1.4c1.1,1.8,2.2,3.5,3.8,4.1
			s3.4,0.2,5.5-0.2c1.4-0.4,2.8-0.6,4.3-0.6c1.4,0.1,2.9,0.3,4.3,0.6c2,0.4,3.9,0.9,5.5,0.2s2.7-2.3,3.8-4.1
			c0.7-1.2,1.5-2.3,2.5-3.3c1-0.9,2.1-1.8,3.3-2.5c1.8-1.1,3.5-2.2,4.1-3.8s0.2-3.4-0.2-5.5c-0.4-1.4-0.6-2.8-0.6-4.3
			c0-1.4,0.2-2.9,0.6-4.2c0.4-2,0.9-4,0.2-5.5s-2.3-2.7-4.1-3.8c-1.2-0.7-2.3-1.5-3.3-2.5c-0.9-1-1.8-2.1-2.5-3.3
			c-1.1-1.8-2.2-3.5-3.8-4.1s-3.4-0.2-5.5,0.2c-1.4,0.4-2.8,0.6-4.3,0.6C24.4,3.2,23,3,21.6,2.6c-2-0.5-4-0.9-5.5-0.2
			s-2.7,2.3-3.8,4.1c-0.7,1.2-1.5,2.3-2.5,3.3c-1,0.9-2.1,1.8-3.3,2.5c-1.8,1.1-3.5,2.2-4.1,3.8s-0.2,3.4,0.2,5.5
			C3,23,3.2,24.4,3.2,25.8c-0.1,1.4-0.3,2.9-0.6,4.3c-0.5,2-0.9,3.9-0.2,5.5s2.3,2.7,4.1,3.8l0.4,0.3c0.5,0.3,0.6,1,0.3,1.4
			c-0.3,0.5-1,0.6-1.4,0.3l0,0l-0.4-0.3c-2-1.3-4-2.5-4.9-4.8s-0.4-4.4,0.1-6.7c0.3-1.2,0.5-2.5,0.6-3.8c-0.1-1.3-0.2-2.6-0.6-3.8
			c-0.5-2.3-1-4.6-0.1-6.7s3-3.5,5-4.8c1.1-0.6,2.1-1.3,3-2.2c0.8-0.9,1.6-1.9,2.2-3c1.3-2,2.6-4,4.8-4.9s4.4-0.3,6.6,0.2
			c1.2,0.3,2.5,0.5,3.8,0.6c1.3-0.1,2.6-0.2,3.8-0.6c2.3-0.5,4.6-1,6.7-0.1s3.5,3,4.8,4.9c0.6,1.1,1.3,2.1,2.2,3
			c0.9,0.8,1.9,1.6,3,2.2c2,1.3,4,2.6,4.9,4.8s0.3,4.4-0.2,6.6c-0.3,1.2-0.5,2.5-0.6,3.8c0.1,1.3,0.3,2.6,0.6,3.8
			c0.5,2.3,1,4.6,0.1,6.7s-3,3.5-4.9,4.8c-1.1,0.6-2.1,1.3-3,2.2c-0.8,0.9-1.6,1.9-2.2,3c-1.3,2-2.5,4-4.8,4.9s-4.4,0.4-6.7-0.1
			c-1.2-0.3-2.5-0.5-3.8-0.6c-1.3,0-2.5,0.2-3.8,0.5C20.7,51.3,19.3,51.6,17.9,51.6"/>
		<path class="st0" d="M12.7,21.6c0.1-0.3,0.3-0.5,0.6-0.5l8.2-1.2l3.7-7.4c0.2-0.4,0.6-0.5,1-0.3c0.1,0.1,0.3,0.2,0.3,0.3l3.6,7.4
			l8.2,1.2c0.3,0,0.5,0.2,0.6,0.5c0.1,0.3,0,0.6-0.2,0.7l-6,5.8l1.4,8.2c0,0.3-0.1,0.5-0.3,0.7c-0.1,0.1-0.3,0.1-0.4,0.1
			c-0.1,0-0.2,0-0.3-0.1l-7.3-3.9L18.4,37c-0.1,0.1-0.2,0.1-0.3,0.1c-0.4,0-0.7-0.3-0.7-0.7c0-0.1,0-0.1,0-0.2l1.4-8.1l-5.9-5.8
			C12.6,22.1,12.5,21.8,12.7,21.6"/>
	</g>
</g>
</svg>
