<?xml version="1.0" encoding="utf-8"?>
<!-- Generator: Adobe Illustrator 22.1.0, SVG Export Plug-In . SVG Version: 6.00 Build 0)  -->
<svg version="1.1" id="Layer_1" xmlns="http://www.w3.org/2000/svg" xmlns:xlink="http://www.w3.org/1999/xlink" x="0px" y="0px"
	 viewBox="0 0 24.8 19.4" style="enable-background:new 0 0 24.8 19.4;" xml:space="preserve">
<style type="text/css">
	.st0{fill:#FFAB00;}
</style>
<title>m1</title>
<g id="Layer_2_1_">
	<g id="Layer_1-2">
		<path class="st0" d="M24.4,11.9c-0.3-0.2-0.8-0.1-1.1,0.1l-6.9,4.3c-0.2,0.1-0.3,0.4-0.1,0.6c0.1,0.2,0.4,0.3,0.6,0.1l6.9-4.3
			c0.1-0.1,0.2-0.1,0.2-0.1c0,0.1,0.1,0.2,0.1,0.2c0,0.5-0.3,1-0.7,1.3l-6.7,4.2c-0.2,0.2-0.6,0.3-0.9,0.2c-0.2-0.1-0.3-0.4-0.3-0.8
			c0.1-1.2,0.7-2.3,1.7-3l7.6-4.8c0.1-0.1,0.2-0.2,0.2-0.4c0-0.1-0.1-0.3-0.2-0.3L10.1,0.1C9.9,0,9.8,0,9.6,0.1L2,4.9
			C0.8,5.7,0.1,7,0,8.4v0.2c0.1,1.4,0.8,2.7,2,3.5l11.4,7.2c0.2,0.1,0.4,0.1,0.6-0.1c0.1-0.2,0.1-0.4-0.1-0.6L2.4,11.5
			c-0.9-0.7-1.5-1.7-1.6-2.8V8.4c0.1-1.1,0.6-2.2,1.6-2.8l7.5-4.7l13.8,8.7l-7,4.4c-1.2,0.9-1.9,2.2-2,3.7c-0.1,0.6,0.2,1.2,0.8,1.6
			c0.2,0.1,0.4,0.2,0.6,0.2c0.4,0,0.8-0.1,1.1-0.4l6.7-4.2c0.7-0.5,1.1-1.2,1.1-2C25,12.5,24.8,12.1,24.4,11.9"/>
		<path class="st0" d="M19.3,10c0.1,0,0.3-0.1,0.4-0.2c0.1-0.2,0.1-0.4-0.1-0.6l-9.5-6C9.9,3.1,9.6,3.2,9.5,3.4
			C9.4,3.6,9.4,3.8,9.6,4c0,0,0,0,0.1,0l9.5,6C19.2,10,19.2,10.1,19.3,10"/>
		<path class="st0" d="M17.7,11.1c0.2,0,0.4-0.2,0.4-0.4c0-0.1-0.1-0.3-0.2-0.4l-4-2.5c-0.2-0.1-0.4-0.1-0.6,0.1
			c-0.1,0.2-0.1,0.4,0.1,0.6c0,0,0.1,0,0.1,0.1l4,2.5C17.5,11.1,17.6,11.1,17.7,11.1"/>
		<path class="st0" d="M12.2,8.9C12,8.8,11.8,8.8,11.7,9c0,0,0,0,0,0c-0.1,0.2-0.1,0.4,0.1,0.6l4,2.5c0.1,0,0.1,0.1,0.2,0.1
			c0.1,0,0.3-0.1,0.3-0.2c0.1-0.2,0.1-0.4-0.1-0.6L12.2,8.9z"/>
		<path class="st0" d="M7.9,4.4L4.5,6.5C4.3,6.6,4.3,6.9,4.4,7.1c0,0.1,0.1,0.1,0.1,0.1l4.1,2.5c0.1,0,0.1,0.1,0.2,0.1
			c0.1,0,0.1,0,0.2-0.1l0.9-0.6c0.2-0.1,0.3-0.4,0.2-0.6C10,8.4,9.7,8.3,9.5,8.4c0,0,0,0-0.1,0L8.8,8.9l-3.3-2l2.6-1.7l3.2,2L11,7.5
			c-0.2,0.1-0.2,0.4-0.1,0.6c0.1,0.2,0.4,0.2,0.6,0.1l0,0l0.9-0.6c0.1-0.1,0.2-0.2,0.2-0.3c0-0.1-0.1-0.3-0.2-0.3l-4-2.5
			C8.2,4.3,8.1,4.3,7.9,4.4"/>
		<path class="st0" d="M14.8,13.1c0.1-0.2,0.1-0.4-0.1-0.6L10.6,10c-0.2-0.1-0.4-0.1-0.6,0.1s-0.1,0.4,0.1,0.6l4.1,2.5
			c0.1,0,0.1,0.1,0.2,0.1C14.5,13.3,14.7,13.2,14.8,13.1"/>
		<path class="st0" d="M2.9,7.8C2.8,8,2.9,8.3,3.1,8.4l10,6.2c0.1,0,0.1,0.1,0.2,0.1c0.2,0,0.4-0.2,0.4-0.4c0-0.2-0.1-0.3-0.2-0.4
			l-10-6.2C3.3,7.6,3,7.6,2.9,7.8"/>
	</g>
</g>
</svg>
