<?xml version="1.0" encoding="utf-8"?>
<!-- Generator: Adobe Illustrator 22.1.0, SVG Export Plug-In . SVG Version: 6.00 Build 0)  -->
<svg version="1.1" id="Layer_1" xmlns="http://www.w3.org/2000/svg" xmlns:xlink="http://www.w3.org/1999/xlink" x="0px" y="0px"
	 viewBox="0 0 24.2 19" style="enable-background:new 0 0 24.2 19;" xml:space="preserve">
<style type="text/css">
	.st0{fill:#FFAB00;}
</style>
<title>m1</title>
<g id="Layer_2_1_">
	<g id="Layer_1-2">
		<path class="st0" d="M24,9.7c0.2-0.1,0.3-0.4,0.1-0.5C24.1,9.1,24.1,9,24,9L9.8,0.1C9.7,0,9.5,0,9.4,0.1L1.9,4.8
			C0.8,5.6,0.1,6.8,0,8.2v0.2c0.1,1.4,0.8,2.6,1.9,3.4l11.1,7c0.2,0.1,0.4,0.1,0.6-0.1s0.1-0.4-0.1-0.6l-11.1-7
			c-0.9-0.6-1.4-1.7-1.5-2.8V8.2c0.1-1.1,0.6-2.1,1.5-2.8l7.3-4.6l13.5,8.5l-6.9,4.3c-1.2,0.8-1.9,2.2-2,3.6c0,0.6,0.3,1.2,0.8,1.5
			c0.2,0.1,0.4,0.2,0.6,0.2c0.4,0,0.7-0.1,1.1-0.4l6.5-4.1c0.7-0.5,1.1-1.2,1.1-2c0.1-0.5-0.3-1-0.8-1c-0.3,0-0.5,0-0.7,0.2L16,15.9
			c-0.2,0.1-0.2,0.3-0.1,0.5c0,0,0,0,0,0c0.1,0.2,0.4,0.2,0.6,0.1l6.7-4.2c0.1-0.1,0.2-0.1,0.2-0.1s0.1,0.1,0.1,0.2
			c0,0.5-0.3,1-0.7,1.3l-6.5,4.1c-0.2,0.2-0.6,0.3-0.9,0.2c-0.2-0.2-0.4-0.5-0.3-0.8c0.1-1.2,0.7-2.2,1.6-2.9L24,9.7z M16,11.7
			c0.1-0.2,0.1-0.4-0.1-0.6l-4-2.5c-0.2-0.1-0.4-0.1-0.6,0.1c-0.1,0.2-0.1,0.4,0.1,0.6l3.9,2.4c0.1,0,0.1,0.1,0.2,0.1
			C15.8,11.9,15.9,11.8,16,11.7 M17.6,10.6c0.1-0.2,0.1-0.4-0.1-0.5c0,0,0,0,0,0l-3.9-2.4c-0.2-0.1-0.4-0.1-0.6,0.1
			c-0.1,0.2-0.1,0.4,0.1,0.5c0,0,0,0,0,0l3.9,2.4c0.1,0,0.1,0.1,0.2,0.1C17.3,10.8,17.5,10.7,17.6,10.6 M9.3,3.3
			C9.1,3.5,9.2,3.8,9.4,3.9l9.2,5.8c0.1,0,0.1,0.1,0.2,0.1c0.1,0,0.3-0.1,0.3-0.2c0.1-0.2,0-0.4-0.2-0.6c0,0,0,0,0,0L9.8,3.2
			C9.6,3.1,9.4,3.1,9.3,3.3C9.3,3.3,9.3,3.3,9.3,3.3 M13.2,13.6L3.4,7.5C3.2,7.4,3,7.4,2.9,7.6C2.7,7.8,2.8,8.1,3,8.2c0,0,0,0,0,0
			l9.8,6.1c0.1,0,0.1,0.1,0.2,0.1c0.1,0,0.3-0.1,0.3-0.2C13.4,13.9,13.4,13.7,13.2,13.6 M4.4,6.3C4.3,6.4,4.2,6.5,4.2,6.7
			c0,0.1,0.1,0.2,0.2,0.3l4,2.4c0.1,0.1,0.3,0.1,0.4,0l0.9-0.6c0.2-0.1,0.2-0.4,0.1-0.6C9.7,8.2,9.4,8.1,9.3,8.2L8.6,8.6l-3.2-2
			l2.5-1.6l3.2,2l-0.4,0.2c-0.2,0.1-0.2,0.4-0.1,0.6C10.7,8,11,8.1,11.1,8c0,0,0,0,0,0l0.9-0.6c0.2-0.1,0.2-0.4,0.1-0.6
			c0,0-0.1-0.1-0.1-0.1L8.1,4.3C8,4.2,7.9,4.2,7.7,4.3L4.4,6.3z M9.9,10.4l4,2.5c0.1,0,0.1,0.1,0.2,0.1c0.1,0,0.3-0.1,0.3-0.2
			c0.1-0.2,0.1-0.4-0.1-0.5c0,0,0,0,0,0l-4-2.5c-0.2-0.1-0.4-0.1-0.6,0.1C9.6,10,9.7,10.3,9.9,10.4C9.9,10.4,9.9,10.4,9.9,10.4"/>
	</g>
</g>
</svg>
