<?xml version="1.0" encoding="utf-8"?>
<!-- Generator: Adobe Illustrator 22.1.0, SVG Export Plug-In . SVG Version: 6.00 Build 0)  -->
<svg version="1.1" id="Layer_1" xmlns="http://www.w3.org/2000/svg" xmlns:xlink="http://www.w3.org/1999/xlink" x="0px" y="0px"
	 viewBox="0 0 19.3 19.3" style="enable-background:new 0 0 19.3 19.3;" xml:space="preserve">
<style type="text/css">
	.st0{fill:#FFAB00;}
</style>
<title>m10</title>
<g id="Layer_2_1_">
	<g id="Layer_1-2">
		<path class="st0" d="M16.5,13.7h-1.7V12c0-0.3-0.3-0.5-0.6-0.5c-0.3,0-0.5,0.2-0.5,0.5v2.3c0,0.3,0.3,0.6,0.6,0.6c0,0,0,0,0,0h2.3
			c0.3,0,0.6-0.2,0.6-0.5c0,0,0,0,0,0C17.1,14,16.8,13.7,16.5,13.7"/>
		<path class="st0" d="M5.1,10.3H2.8c-0.3,0-0.6,0.3-0.6,0.6c0,0.3,0.3,0.6,0.6,0.6h2.3c0.3,0,0.6-0.3,0.6-0.6
			C5.7,10.5,5.4,10.3,5.1,10.3"/>
		<path class="st0" d="M5.1,13.7H2.8c-0.3,0-0.6,0.3-0.6,0.6c0,0.3,0.3,0.6,0.6,0.6h0h2.3c0.3,0,0.6-0.2,0.6-0.6
			C5.7,13.9,5.4,13.7,5.1,13.7"/>
		<path class="st0" d="M14.2,9.1c-1.2,0-2.3,0.4-3.2,1.2c-0.1,0-0.1,0-0.2,0H8.6c-0.3,0-0.6,0.3-0.6,0.6c0,0.3,0.3,0.6,0.6,0.6h0H10
			c-0.5,0.7-0.7,1.5-0.8,2.3H8.6c-0.3,0-0.5,0.3-0.5,0.6c0,0.3,0.2,0.5,0.5,0.5h0.6c0.1,0.8,0.4,1.6,0.8,2.2H1.7
			c-0.3,0-0.6-0.3-0.6-0.6V8h17.1v3C17.2,9.8,15.8,9.1,14.2,9.1 M14.2,18.2c-2.2,0-4-1.8-4-4s1.8-4,4-4s4,1.8,4,4
			S16.4,18.2,14.2,18.2 M1.7,3.4h0.6V4c0.1,0.9,0.9,1.6,1.8,1.6C4.9,5.5,5.6,4.8,5.7,4V3.4H8V4c0,0.9,0.8,1.7,1.7,1.7
			c0.9,0,1.7-0.8,1.7-1.7V3.4h2.3V4c0,0.9,0.8,1.7,1.7,1.7c0.9,0,1.7-0.8,1.7-1.7V3.4h0.6c0.3,0,0.6,0.2,0.6,0.6c0,0,0,0,0,0v2.9
			H1.1V4C1.1,3.7,1.4,3.4,1.7,3.4C1.7,3.4,1.7,3.4,1.7,3.4 M3.4,1.7c0-0.3,0.2-0.6,0.5-0.6s0.6,0.2,0.6,0.5c0,0.1,0,0.1,0,0.2V4
			c0,0.3-0.3,0.5-0.6,0.5C3.6,4.5,3.4,4.3,3.4,4V1.7z M9.7,1.1c0.3,0,0.6,0.3,0.6,0.6V4c0,0.3-0.3,0.5-0.6,0.5
			C9.4,4.5,9.2,4.3,9.1,4V2.8l0,0V1.7C9.1,1.4,9.4,1.1,9.7,1.1 M14.8,1.7c0-0.3,0.3-0.6,0.6-0.6c0.3,0,0.6,0.3,0.6,0.6V4
			c0,0.3-0.3,0.6-0.6,0.6c-0.3,0-0.6-0.3-0.6-0.6V1.7z M17.6,2.3h-0.6V1.7c0-0.9-0.8-1.7-1.7-1.7c-0.9,0-1.7,0.8-1.7,1.7v0.6h-2.3
			V1.7c0-0.9-0.8-1.7-1.7-1.7S8,0.8,8,1.7c0,0,0,0,0,0v0.6H5.7V1.7C5.7,0.8,5-0.1,4.1-0.1S2.3,0.5,2.3,1.4c0,0.1,0,0.2,0,0.3v0.6
			H1.7C0.8,2.3,0,3,0,4c0,0,0,0,0,0v12.5c0,0.9,0.8,1.7,1.7,1.7c0,0,0,0,0,0H11c2.2,1.8,5.4,1.4,7.2-0.7c0.7-0.9,1.2-2.1,1.1-3.3V4
			C19.3,3.1,18.5,2.3,17.6,2.3L17.6,2.3"/>
	</g>
</g>
</svg>
