<?xml version="1.0" encoding="utf-8"?>
<!-- Generator: Adobe Illustrator 22.1.0, SVG Export Plug-In . SVG Version: 6.00 Build 0)  -->
<svg version="1.1" id="Layer_1" xmlns="http://www.w3.org/2000/svg" xmlns:xlink="http://www.w3.org/1999/xlink" x="0px" y="0px"
	 viewBox="0 0 20.4 20.4" style="enable-background:new 0 0 20.4 20.4;" xml:space="preserve">
<style type="text/css">
	.st0{fill:#FFAB00;}
</style>
<title>m9</title>
<g id="Layer_2_1_">
	<g id="Layer_1-2">
		<path class="st0" d="M17.2,15.3h-1.9v-1.9c0-0.4-0.3-0.6-0.6-0.6c0,0,0,0,0,0c-0.3,0-0.6,0.3-0.6,0.6v2.6c0,0.3,0.3,0.6,0.6,0.6
			h2.6c0.4,0,0.7-0.2,0.7-0.6s-0.2-0.7-0.6-0.7C17.3,15.3,17.3,15.3,17.2,15.3 M12.7,7.6h-2.6v2.5h2.6V7.6z M1.3,15.2V6.4h14v2.6
			h1.3V4c0-0.8-0.6-1.4-1.4-1.4c0,0,0,0,0,0h-0.5v0.6c0.1,0.7-0.5,1.3-1.2,1.4c-0.7,0.1-1.3-0.5-1.4-1.2c0-0.1,0-0.2,0-0.2V2.5H4.5
			v0.6C4.5,3.9,4,4.5,3.3,4.6C2.6,4.6,2,4.1,1.9,3.4c0-0.1,0-0.2,0-0.2V2.5H1.4C0.6,2.6,0,3.2,0,3.9C0,4,0,4,0,4v11.2
			c0,0.8,0.6,1.4,1.4,1.4c0,0,0,0,0,0h7.5v-1.3H1.4C1.3,15.3,1.3,15.2,1.3,15.2C1.3,15.2,1.3,15.2,1.3,15.2 M6.4,14h2.6v-2.5H6.4V14
			z M6.4,10.2h2.6V7.7H6.4V10.2z M2.5,14h2.5v-2.5H2.5V14z M5.1,7.6H2.5v2.5h2.5V7.6z M19.1,15.3c0-2.1-1.7-3.8-3.8-3.8
			c-2.1,0-3.8,1.7-3.8,3.8c0,2.1,1.7,3.8,3.8,3.8S19.1,17.4,19.1,15.3 M20.4,15.3c0,2.8-2.3,5.1-5.1,5.1c-2.8,0-5.1-2.3-5.1-5.1
			s2.3-5.1,5.1-5.1C18.1,10.2,20.4,12.5,20.4,15.3 M13.4,3.8c0.3,0,0.6-0.3,0.6-0.6V0.6C14,0.3,13.7,0,13.4,0s-0.6,0.3-0.6,0.6
			c0,0,0,0,0,0v2.5C12.7,3.5,13,3.8,13.4,3.8L13.4,3.8 M2.5,3.2V0.6c0-0.4,0.2-0.7,0.6-0.7s0.7,0.2,0.7,0.6c0,0.1,0,0.1,0,0.2v2.5
			c0,0.4-0.2,0.7-0.6,0.7c-0.4,0-0.7-0.2-0.7-0.6C2.5,3.3,2.5,3.2,2.5,3.2"/>
	</g>
</g>
</svg>
