<?xml version="1.0" encoding="utf-8"?>
<!-- Generator: Adobe Illustrator 22.1.0, SVG Export Plug-In . SVG Version: 6.00 Build 0)  -->
<svg version="1.1" id="Layer_1" xmlns="http://www.w3.org/2000/svg" xmlns:xlink="http://www.w3.org/1999/xlink" x="0px" y="0px"
	 viewBox="0 0 21.8 19.4" style="enable-background:new 0 0 21.8 19.4;" xml:space="preserve">
<style type="text/css">
	.st0{fill:#FFAB00;}
</style>
<title>m11</title>
<g id="Layer_2_1_">
	<g id="Layer_1-2">
		<path class="st0" d="M21.6,7.7L11.2,0.1C11,0,10.8,0,10.6,0.1L0.2,7.7C0,7.9-0.1,8.2,0.1,8.5c0,0,0,0,0,0c0.2,0.2,0.5,0.3,0.8,0.1
			l10-7.3l10,7.3c0.1,0.1,0.2,0.1,0.3,0.1c0.3,0,0.6-0.3,0.5-0.6C21.8,7.9,21.7,7.8,21.6,7.7"/>
		<path class="st0" d="M18.8,8.7c-0.3,0-0.6,0.2-0.6,0.6v9h-4.5v-4.9c0-1.6-1.3-2.8-2.8-2.8c-1.6,0-2.8,1.3-2.8,2.8v4.9H3.5v-9
			C3.5,9,3.3,8.7,3,8.7C2.7,8.7,2.4,9,2.4,9.3v9.6c0,0.3,0.3,0.6,0.6,0.6h5.7c0.3,0,0.5-0.2,0.6-0.5v-5.5c0-0.9,0.8-1.7,1.7-1.7
			c0.9,0,1.7,0.8,1.7,1.7l0,0v5.5c0,0.3,0.3,0.5,0.6,0.5h5.7c0.3,0,0.6-0.2,0.6-0.6V9.3C19.4,9,19.1,8.7,18.8,8.7"/>
	</g>
</g>
</svg>
