<?xml version="1.0" encoding="utf-8"?>
<!-- Generator: Adobe Illustrator 22.1.0, SVG Export Plug-In . SVG Version: 6.00 Build 0)  -->
<svg version="1.1" id="Layer_1" xmlns="http://www.w3.org/2000/svg" xmlns:xlink="http://www.w3.org/1999/xlink" x="0px" y="0px"
	 viewBox="0 0 23.8 18.6" style="enable-background:new 0 0 23.8 18.6;" xml:space="preserve">
<style type="text/css">
	.st0{fill:#FFAB00;}
</style>
<title>m0</title>
<g id="Layer_2_1_">
	<g id="Layer_1-2">
		<path class="st0" d="M19.4,17.9h-4.5V9.6l0,0h4.5l0,0L19.4,17.9z M2.2,7.1C2.4,7,2.7,6.9,2.9,6.7L3,6.6c0.3,0.3,0.7,0.5,1.1,0.5
			c0.4,0,0.8-0.2,1.1-0.5c0.5,0.6,1.4,0.7,2.1,0.2c0.1-0.1,0.1-0.1,0.2-0.2C8,7.2,8.9,7.3,9.5,6.7c0.1-0.1,0.1-0.1,0.2-0.2
			c0.5,0.6,1.5,0.7,2.1,0.2c0.1-0.1,0.1-0.1,0.2-0.2c0.3,0.3,0.7,0.5,1.1,0.5c0.4,0,0.8-0.2,1.1-0.5c0.5,0.6,1.4,0.7,2.1,0.2
			c0.1-0.1,0.1-0.1,0.2-0.2c0.3,0.3,0.7,0.5,1.1,0.5c0.4,0,0.8-0.2,1.1-0.5c0.5,0.6,1.5,0.7,2.1,0.2c0.1-0.1,0.1-0.1,0.2-0.2
			l0.1,0.1c0.2,0.2,0.4,0.3,0.6,0.4v10.8H20V9.6c0-0.4-0.3-0.7-0.7-0.7h-4.5c-0.4,0-0.7,0.3-0.7,0.7v8.2h-12L2.2,7.1z M1.1,5.6V0.7
			l0,0h1.5v4.9c0,0.2-0.1,0.4-0.2,0.6C2.2,6.3,2,6.4,1.8,6.4C1.4,6.3,1.1,6,1.1,5.6 M18.9,0.7h1.5v4.9c0,0.4-0.3,0.8-0.8,0.8
			S18.9,6,18.9,5.6V0.7z M16.7,0.7h1.5v4.9c0,0.4-0.3,0.8-0.8,0.8S16.7,6,16.7,5.6V0.7z M14.5,0.7H16v4.9c0,0.4-0.3,0.8-0.7,0.9
			c-0.4,0-0.8-0.3-0.9-0.7c0-0.1,0-0.1,0-0.2V0.7z M12.2,0.7h1.5v4.9c0,0.4-0.3,0.8-0.7,0.9c-0.4,0-0.8-0.3-0.9-0.7
			c0-0.1,0-0.1,0-0.2V0.7z M10,0.7h1.5v4.9c0,0.4-0.3,0.8-0.8,0.8C10.3,6.4,10,6,10,5.6c0,0,0,0,0,0V0.7z M7.8,0.7h1.5v4.9
			C9.3,6,9,6.4,8.6,6.5c-0.4,0-0.8-0.3-0.9-0.7c0-0.1,0-0.1,0-0.2L7.8,0.7z M5.5,0.7h1.5v4.9c0,0.4-0.3,0.8-0.7,0.9
			C6,6.5,5.6,6.2,5.5,5.8c0-0.1,0-0.1,0-0.2V0.7z M3.3,0.7h1.5v4.9c0,0.4-0.3,0.8-0.8,0.8C3.6,6.4,3.3,6,3.3,5.6L3.3,0.7z M22.7,0.7
			v4.9c0,0.4-0.3,0.8-0.7,0.8c-0.4,0-0.8-0.3-0.8-0.7c0,0,0,0,0,0V0.7H22.7L22.7,0.7 M23.4,17.8h-1.1V7.1c0.7-0.2,1.1-0.8,1.1-1.5
			V0.7c0-0.4-0.3-0.7-0.7-0.7H1.1C0.7,0,0.4,0.3,0.4,0.7c0,0,0,0,0,0v4.8c0,0.7,0.5,1.3,1.1,1.5v10.8H0.3C0.2,17.9,0,18,0,18.2
			c0,0,0,0,0,0c0,0.2,0.2,0.4,0.3,0.4c0,0,0,0,0,0h23.1c0.2,0,0.3-0.1,0.4-0.3c0,0,0,0,0,0C23.8,18,23.6,17.9,23.4,17.8L23.4,17.8"
			/>
		<path class="st0" d="M16,13c-0.2,0-0.4,0.2-0.4,0.3v0v0.7c0,0.2,0.2,0.4,0.4,0.4s0.4-0.2,0.4-0.4v-0.7C16.4,13.2,16.2,13,16,13
			L16,13"/>
		<path class="st0" d="M11.9,15.6H4.4v-6h7.5V15.6z M12.2,8.9H4.1c-0.2,0-0.4,0.2-0.4,0.4v6.6c0,0.2,0.2,0.4,0.4,0.4h8.1
			c0.2,0,0.4-0.2,0.4-0.4V9.3C12.6,9.1,12.4,8.9,12.2,8.9"/>
	</g>
</g>
</svg>
