<?xml version="1.0" encoding="utf-8"?>
<!-- Generator: Adobe Illustrator 22.1.0, SVG Export Plug-In . SVG Version: 6.00 Build 0)  -->
<svg version="1.1" id="Layer_1" xmlns="http://www.w3.org/2000/svg" xmlns:xlink="http://www.w3.org/1999/xlink" x="0px" y="0px"
	 viewBox="0 0 23.2 18.1" style="enable-background:new 0 0 23.2 18.1;" xml:space="preserve">
<style type="text/css">
	.st0{fill:#FFAB00;}
</style>
<title>m3</title>
<g id="Layer_2_1_">
	<g id="Layer_1-2">
		<path class="st0" d="M18.9,17.4h-4.4v-8l0,0h4.4l0,0L18.9,17.4z M2.1,6.9c0.2-0.1,0.5-0.2,0.6-0.3l0.1-0.1C3.2,6.7,3.6,6.9,4,6.9
			c0.4,0,0.8-0.2,1.1-0.5C5.6,7,6.4,7.1,7,6.6c0.1-0.1,0.1-0.1,0.2-0.2c0.3,0.3,0.7,0.5,1.1,0.5c0.4,0,0.8-0.2,1.1-0.5
			c0.5,0.6,1.4,0.7,2,0.2c0.1-0.1,0.1-0.1,0.2-0.2c0.3,0.3,0.7,0.5,1.1,0.5c0.4,0,0.8-0.2,1.1-0.5c0.3,0.3,0.7,0.5,1.1,0.5
			c0.4,0,0.8-0.2,1.1-0.5c0.5,0.6,1.4,0.7,2,0.2c0.1-0.1,0.1-0.1,0.2-0.2c0.5,0.6,1.4,0.7,2,0.2c0.1-0.1,0.1-0.1,0.2-0.2l0.1,0.1
			c0.2,0.2,0.4,0.3,0.6,0.3v10.5h-1.5v-8c0-0.4-0.3-0.7-0.7-0.7h-4.4c-0.4,0-0.7,0.3-0.7,0.7v8H2.1V6.9z M1,5.4V0.7l0,0h1.5v4.8
			c0,0.2-0.1,0.4-0.2,0.5C2.2,6.1,2,6.2,1.8,6.2C1.3,6.2,1,5.8,1,5.4 M18.5,0.7H20v4.8c0,0.4-0.3,0.8-0.8,0.8s-0.8-0.3-0.8-0.8
			L18.5,0.7z M16.3,0.7h1.5v4.8c0,0.4-0.2,0.8-0.7,0.8s-0.8-0.2-0.8-0.7c0-0.1,0-0.1,0-0.2V0.7z M14.1,0.7h1.5v4.8
			c0,0.4-0.3,0.8-0.8,0.8s-0.8-0.3-0.8-0.8V0.7z M11.9,0.7h1.5v4.8c0,0.4-0.3,0.8-0.8,0.8s-0.8-0.3-0.8-0.8V0.7z M9.8,0.7h1.5v4.8
			c0,0.4-0.2,0.8-0.7,0.8S9.8,6.1,9.8,5.7c0-0.1,0-0.1,0-0.2V0.7z M7.6,0.7h1.5v4.8c0,0.4-0.3,0.8-0.8,0.8c-0.4,0-0.8-0.3-0.8-0.8
			L7.6,0.7z M5.4,0.7h1.5v4.8c0,0.4-0.2,0.8-0.7,0.8S5.4,6.1,5.4,5.7c0-0.1,0-0.1,0-0.2L5.4,0.7z M3.2,0.7h1.5v4.8
			c0,0.4-0.3,0.8-0.8,0.8S3.2,5.9,3.2,5.5L3.2,0.7z M22.1,0.7v4.7c0,0.4-0.3,0.8-0.7,0.8c-0.2,0-0.4-0.1-0.6-0.2
			c-0.1-0.1-0.2-0.3-0.2-0.5V0.7H22.1L22.1,0.7 M22.8,17.4h-1.1V6.9c0.6-0.2,1.1-0.8,1.1-1.4V0.7c0-0.4-0.3-0.7-0.7-0.7c0,0,0,0,0,0
			h-21C0.7,0,0.4,0.3,0.4,0.7c0,0,0,0,0,0v4.7c0,0.7,0.4,1.3,1.1,1.4v10.5H0.3c-0.2,0-0.3,0.2-0.3,0.3s0.2,0.3,0.3,0.3h22.5
			c0.2,0,0.3-0.2,0.3-0.3S23,17.4,22.8,17.4L22.8,17.4"/>
		<path class="st0" d="M15.6,12.7c-0.2,0-0.3,0.2-0.3,0.3v0.7c0,0.2,0.2,0.3,0.3,0.3l0,0c0.2,0,0.3-0.2,0.3-0.3l0,0V13
			C15.9,12.8,15.8,12.7,15.6,12.7L15.6,12.7"/>
		<path class="st0" d="M11.6,15.2H4.3V9.4h7.3L11.6,15.2z M11.9,8.7H4c-0.2,0-0.4,0.2-0.4,0.4v6.4c0,0.2,0.2,0.4,0.4,0.4h0h7.9
			c0.2,0,0.4-0.2,0.4-0.4V9.1C12.3,8.9,12.1,8.7,11.9,8.7"/>
	</g>
</g>
</svg>
