<?xml version="1.0" encoding="utf-8"?>
<!-- Generator: Adobe Illustrator 22.1.0, SVG Export Plug-In . SVG Version: 6.00 Build 0)  -->
<svg version="1.1" id="Layer_1" xmlns="http://www.w3.org/2000/svg" xmlns:xlink="http://www.w3.org/1999/xlink" x="0px" y="0px"
	 viewBox="0 0 33.1 18.8" style="enable-background:new 0 0 33.1 18.8;" xml:space="preserve">
<style type="text/css">
	.st0{fill:#FFAB00;}
</style>
<title>m4</title>
<g id="Layer_2_1_">
	<g id="Layer_1-2">
		<path class="st0" d="M21.4,15.2h-2.8v-0.4c0-0.2,0.2-0.4,0.4-0.4h2.1c0.2,0,0.4,0.2,0.4,0.4L21.4,15.2z M19.4,10
			c0-0.4,0.3-0.7,0.6-0.7c0.4,0,0.7,0.3,0.7,0.6c0,0.4-0.3,0.7-0.6,0.7c0,0,0,0,0,0C19.7,10.6,19.4,10.4,19.4,10 M11.2,10.6
			c-0.4,0-0.7-0.3-0.7-0.6s0.3-0.7,0.6-0.7s0.7,0.3,0.7,0.6c0,0,0,0,0,0C11.8,10.4,11.6,10.6,11.2,10.6 M12.2,14.4
			c0.2,0,0.4,0.2,0.4,0.4v0.4H9.8v-0.4c0-0.2,0.2-0.4,0.4-0.4c0,0,0,0,0,0H12.2z M21,13.6h-0.6v-2.3c0.8-0.2,1.2-1,1-1.7
			c-0.2-0.8-1-1.2-1.7-1c-0.6,0.2-1.1,0.7-1.1,1.4c0,0.2,0,0.4,0.1,0.6c-1.9,1.1-4.4,1.1-6.3,0c0.1-0.2,0.2-0.4,0.2-0.6
			c0-0.8-0.6-1.4-1.4-1.4S9.8,9.2,9.8,10c0,0.6,0.4,1.2,1,1.4v2.3h-0.6c-0.6,0-1.2,0.5-1.2,1.1c0,0,0,0,0,0V16h4.4v-1.2
			c0-0.6-0.5-1.2-1.2-1.2h-0.6v-2.3c0.1,0,0.2-0.1,0.3-0.1c2.3,1.4,5.1,1.4,7.4,0c0.1,0.1,0.2,0.1,0.3,0.1v2.3H19
			c-0.6,0-1.2,0.5-1.2,1.2V16h4.4v-1.2C22.2,14.2,21.7,13.7,21,13.6"/>
		<path class="st0" d="M17.8,8.2h-0.5V7.5c0-0.5-0.2-0.9-0.6-1.2c0.4-0.6,0.3-1.4-0.3-1.8c-0.6-0.4-1.4-0.3-1.8,0.3
			c-0.3,0.5-0.3,1.1,0,1.5c-0.4,0.3-0.6,0.7-0.6,1.2v0.6h-0.5V3.5h4.4V8.2z M15.1,5.6c0-0.3,0.2-0.5,0.5-0.5c0.3,0,0.5,0.2,0.5,0.5
			s-0.2,0.5-0.5,0.5C15.3,6.1,15.1,5.9,15.1,5.6L15.1,5.6 M16.5,8.2h-1.8V7.5c0-0.4,0.3-0.6,0.6-0.6h0.5c0.4,0,0.6,0.3,0.7,0.6V8.2z
			 M18.6,2.8h-5.9V9h5.9V2.8z"/>
		<path class="st0" d="M2.8,12.1V6.6c0-0.3-0.3-0.5-0.6-0.5c-0.3,0-0.4,0.2-0.5,0.5v5.5c0,0.3,0.3,0.5,0.6,0.5
			C2.5,12.6,2.7,12.4,2.8,12.1"/>
		<path class="st0" d="M32,2v14.8c0,0.5-0.4,0.9-0.9,0.9h-3.5V1.1h3.5C31.6,1.1,32,1.5,32,2C32,2,32,2,32,2 M26.5,17.6h-22V1.1h22
			V17.6z M1.1,16.8V2c0-0.5,0.4-0.9,0.9-0.9c0,0,0,0,0,0h1.3v16.5H2C1.5,17.6,1.1,17.2,1.1,16.8 M0,2v14.8c0,1.1,0.9,2,2,2h29.1
			c1.1,0,2-0.9,2-2V2c0-1.1-0.9-2-2-2H2C0.9,0,0,0.9,0,2"/>
		<path class="st0" d="M30.6,9.4c0,0.5-0.4,0.8-0.8,0.8s-0.8-0.4-0.8-0.8c0-0.5,0.4-0.8,0.8-0.8S30.6,8.9,30.6,9.4L30.6,9.4
			 M28.1,9.4c0,0.9,0.8,1.7,1.7,1.7c0.9,0,1.7-0.8,1.7-1.7s-0.8-1.7-1.7-1.7C28.8,7.7,28.1,8.4,28.1,9.4L28.1,9.4"/>
	</g>
</g>
</svg>
