<?xml version="1.0" encoding="utf-8"?>
<!-- Generator: Adobe Illustrator 22.1.0, SVG Export Plug-In . SVG Version: 6.00 Build 0)  -->
<svg version="1.1" id="Layer_1" xmlns="http://www.w3.org/2000/svg" xmlns:xlink="http://www.w3.org/1999/xlink" x="0px" y="0px"
	 viewBox="0 0 31.5 16.5" style="enable-background:new 0 0 31.5 16.5;" xml:space="preserve">
<style type="text/css">
	.st0{fill:#FFAB00;}
</style>
<title>m3</title>
<g id="Layer_2_1_">
	<g id="Layer_1-2">
		<path class="st0" d="M21.1,13.6h-2.6v-0.4c0-0.2,0.2-0.4,0.4-0.4l0,0h1.9c0.2,0,0.4,0.2,0.4,0.4l0,0V13.6z M19.2,8.8
			c0-0.3,0.2-0.6,0.6-0.6c0,0,0,0,0,0c0.3,0,0.6,0.3,0.6,0.6c0,0,0,0,0,0c0,0.3-0.3,0.6-0.6,0.6l0,0C19.5,9.4,19.2,9.2,19.2,8.8
			C19.2,8.8,19.2,8.8,19.2,8.8 M11.7,9.4c-0.3,0-0.6-0.3-0.6-0.6v0c0-0.3,0.3-0.6,0.6-0.6c0,0,0,0,0,0c0.3,0,0.6,0.2,0.6,0.6
			c0,0,0,0,0,0C12.3,9.2,12,9.4,11.7,9.4C11.7,9.4,11.7,9.4,11.7,9.4 M12.6,12.9c0.2,0,0.4,0.2,0.4,0.4v0.4h-2.6v-0.4
			c0-0.2,0.2-0.4,0.4-0.4H12.6z M20.8,12.2h-0.6v-2.1c0.7-0.2,1.1-0.9,0.9-1.6s-0.9-1.1-1.6-0.9c-0.6,0.2-0.9,0.7-0.9,1.3
			c0,0.2,0,0.4,0.1,0.6c-1.8,1.1-4,1.1-5.8,0c0.3-0.6,0.1-1.4-0.6-1.8c-0.6-0.3-1.4-0.1-1.8,0.6c-0.1,0.2-0.1,0.4-0.1,0.6
			c0,0.6,0.4,1.1,1,1.3v2.1h-0.6c-0.6,0-1.1,0.5-1.1,1.1v1.1h4v-1.1c0-0.6-0.5-1.1-1.1-1.1H12v-2.1c0.1,0,0.2-0.1,0.3-0.1
			c2.1,1.3,4.7,1.3,6.8,0c0.1,0.1,0.2,0.1,0.3,0.1v2.1h-0.6c-0.6,0-1.1,0.5-1.1,1.1v1.1h4v-1.1C21.8,12.7,21.3,12.2,20.8,12.2"/>
		<path class="st0" d="M17.8,7.2h-0.5V6.6c0-0.4-0.2-0.9-0.6-1.1c0.2-0.2,0.2-0.4,0.2-0.7c0-0.7-0.5-1.2-1.2-1.2
			c-0.7,0-1.2,0.5-1.2,1.2c0,0.3,0.1,0.5,0.2,0.7c-0.4,0.2-0.6,0.6-0.6,1.1v0.6h-0.5V2.9h4L17.8,7.2z M15.3,4.8
			c0-0.3,0.2-0.5,0.5-0.5s0.5,0.2,0.5,0.5S16,5.3,15.7,5.3l0,0C15.5,5.2,15.3,5,15.3,4.8 M16.6,7.2h-1.7V6.6c0-0.3,0.3-0.6,0.6-0.6
			H16c0.3,0,0.6,0.3,0.6,0.6c0,0,0,0,0,0L16.6,7.2z M18.5,2.2H13v5.7h5.5V2.2z"/>
		<path class="st0" d="M27.5,15.2H3.9V1.3h23.6V15.2z M30.3,8.3c0,0.5-0.4,0.9-0.9,0.9s-0.9-0.4-0.9-0.9s0.4-0.9,0.9-0.9l0,0
			C29.9,7.4,30.3,7.8,30.3,8.3 M1.7,9.4V7.1c0-0.1,0.1-0.1,0.1-0.1C1.9,6.9,2,7,2,7c0,0,0,0,0,0v2.3c0,0.1-0.1,0.1-0.1,0.1
			c0,0,0,0,0,0C1.8,9.6,1.7,9.5,1.7,9.4 M0,1.4v13.8c0,0.8,0.6,1.4,1.3,1.4c0,0,0,0,0,0h28.8c0.8,0,1.4-0.6,1.4-1.4c0,0,0,0,0,0V1.4
			c0-0.8-0.6-1.4-1.4-1.4c0,0,0,0,0,0H1.4C0.6,0,0,0.6,0,1.4"/>
	</g>
</g>
</svg>
