<?xml version="1.0" encoding="utf-8"?>
<!-- Generator: Adobe Illustrator 22.1.0, SVG Export Plug-In . SVG Version: 6.00 Build 0)  -->
<svg version="1.1" id="Layer_1" xmlns="http://www.w3.org/2000/svg" xmlns:xlink="http://www.w3.org/1999/xlink" x="0px" y="0px"
	 viewBox="0 0 21.8 17.6" style="enable-background:new 0 0 21.8 17.6;" xml:space="preserve">
<style type="text/css">
	.st0{fill:#FFAB00;}
</style>
<title>m4</title>
<g id="Layer_2_1_">
	<g id="Layer_1-2">
		<path class="st0" d="M17.2,2.2l0.3-1.3C17.6,0.5,17.3,0.1,17,0c0,0,0,0,0,0c-0.4-0.1-0.7,0.2-0.8,0.5l-0.3,1.3
			c-0.1,0.4,0.2,0.7,0.5,0.8c0,0,0,0,0,0C16.8,2.8,17.1,2.5,17.2,2.2C17.2,2.2,17.2,2.2,17.2,2.2"/>
		<path class="st0" d="M21.2,6.5l-1.3-0.3c-0.4-0.1-0.7,0.2-0.8,0.5c0,0,0,0,0,0c-0.1,0.4,0.2,0.7,0.5,0.8c0,0,0,0,0,0l1.3,0.3
			c0.4,0.1,0.7-0.2,0.8-0.5S21.6,6.5,21.2,6.5"/>
		<path class="st0" d="M19.3,4.5l1.6-1.1c0.3-0.2,0.4-0.6,0.2-0.9c-0.2-0.3-0.6-0.4-0.9-0.2l0,0l-1.6,1.1c-0.3,0.2-0.4,0.6-0.2,0.9
			C18.6,4.6,19,4.7,19.3,4.5"/>
		<path class="st0" d="M11.6,15.1l-3.3,1.1C7.8,16.3,7.4,16.2,7,16c-0.2-0.1-0.3-0.2-0.4-0.3c-0.2-0.2,0.1-0.2,0.1-0.2l6-1.9
			c0,0,0.2-0.1,0.1,0.2C12.7,14.4,12.3,14.9,11.6,15.1 M11.7,2.2C11.6,2.1,11.5,2,11.3,2c-0.1,0-0.1,0.1-0.2,0.1l-9.2,11
			c-0.1,0.2-0.1,0.4,0,0.6l1.6,2.4c0.1,0.2,0.4,0.3,0.6,0.2l1-0.3c0.1,0,0.2,0,0.3,0.1c0.3,0.4,0.7,0.7,1.1,1
			c0.7,0.4,1.5,0.4,2.2,0.2l3.4-1.1h0.1c1.2-0.4,2-1.6,1.9-2.8c0-0.1,0-0.2,0.1-0.3l3.5-1.1l0,0c0.1,0,0.2-0.1,0.2-0.2
			c0-0.1,0-0.2,0-0.3L11.7,2.2z"/>
		<path class="st0" d="M20,11L12.9,0.4c-0.2-0.3-0.5-0.4-0.8-0.3l-0.2,0.1c-0.2,0.1-0.3,0.3-0.3,0.5c0,0.2,0,0.4,0.1,0.5l7.2,10.6
			c0.2,0.3,0.5,0.4,0.8,0.3l0.2-0.1C20.2,11.8,20.2,11.3,20,11C20,11,20,11,20,11"/>
		<path class="st0" d="M1.3,14.1c-0.2-0.3-0.5-0.4-0.8-0.3c-0.1,0-0.1,0-0.2,0.1c-0.3,0.2-0.4,0.7-0.2,1c0,0,0,0,0,0l1.6,2.3
			c0.2,0.3,0.5,0.4,0.8,0.3l0.2-0.1C2.9,17.3,3,17.2,3,17c0-0.2,0-0.4-0.1-0.5L1.3,14.1z"/>
	</g>
</g>
</svg>
