<?xml version="1.0" encoding="utf-8"?>
<!-- Generator: Adobe Illustrator 22.1.0, SVG Export Plug-In . SVG Version: 6.00 Build 0)  -->
<svg version="1.1" id="Layer_1" xmlns="http://www.w3.org/2000/svg" xmlns:xlink="http://www.w3.org/1999/xlink" x="0px" y="0px"
	 viewBox="0 0 21.9 17.2" style="enable-background:new 0 0 21.9 17.2;" xml:space="preserve">
<style type="text/css">
	.st0{fill:#FFAB00;}
</style>
<title>m5</title>
<g id="Layer_2_1_">
	<g id="Layer_1-2">
		<path class="st0" d="M18.3,8.9l-1.5,0.5V6.7l1.5,0.5V8.9z M16.1,14.6c0,0.4-0.3,0.7-0.7,0.7c-0.4,0-0.7-0.3-0.7-0.7V1.5
			c0-0.4,0.3-0.7,0.7-0.7c0.4,0,0.7,0.3,0.7,0.7c0,0,0,0,0,0V14.6z M5.8,10.4V5.7l8-3.2v11.1L5.8,10.4z M6.3,15.2l0.4,0.4
			c0,0,0,0.1,0,0.1c0,0,0,0.1,0,0.1c0,0,0,0-0.1,0l-2.4,0.5L3,11h2.2l1,4.1C6.2,15.2,6.3,15.2,6.3,15.2 M0.7,8c0-1.2,1-2.2,2.2-2.2
			h2.2v4.4H2.9C1.7,10.2,0.7,9.2,0.7,8C0.7,8,0.7,8,0.7,8 M18.7,6.6L16.8,6V1.5C16.7,0.7,16,0,15.2,0.1c-0.7,0.1-1.3,0.6-1.3,1.3
			v0.3L5.4,5.1H2.9C1.3,5.1,0,6.4,0,8c0,1.4,0.9,2.6,2.3,2.9l1.4,6c0,0.2,0.2,0.3,0.4,0.3h0.1l2.7-0.5l0,0c0.2,0,0.3-0.1,0.4-0.2
			c0.3-0.3,0.3-0.9,0-1.2c0,0,0,0,0,0l-0.4-0.4L6,11.2l7.9,3.2v0.3c-0.1,0.8,0.5,1.5,1.3,1.6c0.8,0.1,1.5-0.5,1.6-1.3
			c0-0.1,0-0.2,0-0.2v-4.5l1.9-0.6c0.2,0,0.3-0.2,0.3-0.4V6.9C19,6.8,18.9,6.6,18.7,6.6"/>
		<rect x="19.7" y="7.7" class="st0" width="2.2" height="0.7"/>
		<rect x="19.6" y="3.8" transform="matrix(0.8576 -0.5143 0.5143 0.8576 0.7806 11.2169)" class="st0" width="2.1" height="0.7"/>
		
			<rect x="20.3" y="10.8" transform="matrix(0.5144 -0.8575 0.8575 0.5144 -0.1596 23.4687)" class="st0" width="0.7" height="2.1"/>
		<rect x="3.7" y="6.6" class="st0" width="0.7" height="1.5"/>
		<rect x="2.2" y="6.6" class="st0" width="0.7" height="1.5"/>
	</g>
</g>
</svg>
