<?xml version="1.0" encoding="utf-8"?>
<!-- Generator: Adobe Illustrator 22.1.0, SVG Export Plug-In . SVG Version: 6.00 Build 0)  -->
<svg version="1.1" id="Layer_1" xmlns="http://www.w3.org/2000/svg" xmlns:xlink="http://www.w3.org/1999/xlink" x="0px" y="0px"
	 viewBox="0 0 20.7 20.9" style="enable-background:new 0 0 20.7 20.9;" xml:space="preserve">
<style type="text/css">
	.st0{fill:#FFAB00;}
</style>
<title>m6</title>
<g id="Layer_2_1_">
	<g id="Layer_1-2">
		<path class="st0" d="M20.3,7.8c-0.3,0.4-0.6,0.7-1,1l-0.8,0.5l-2.7-1.6l0.1-1c0.1-1.1,0.7-2,1.7-2.5l3-1.4l0.1,1.3h-0.1l-1.1,0.3
			c-1.1,0.3-1.9,1.1-2.1,2.2c0,0.3,0.1,0.5,0.4,0.6h0.1c0.2,0,0.4-0.2,0.5-0.4c0.2-0.7,0.7-1.3,1.4-1.5L20.6,5l0,1.1
			C20.7,6.7,20.6,7.3,20.3,7.8 M11.7,20.2c-0.4,0.7-1.3,0.9-1.9,0.5c-0.7-0.4-0.9-1.3-0.5-1.9l0,0l3.6-5.9l0,0l0,0l1.3-2.2l1.2,0.7
			l1.2,0.7L11.7,20.2z M3.5,8.7L4.6,8l3.5,5.3v5.2L2.3,9.5L3.5,8.7z M0.9,4l0.6,0.9L0.7,5.4L0,4.4L0.9,4z M3.9,7.3L3.8,7.4L2,8.6
			L1.8,7.2c0-0.1,0-0.2-0.1-0.2L1.2,6.2L2,5.7l0.5,0.8c0,0.1,0.1,0.1,0.2,0.2L3.9,7.3z M10.5,0l2.3,3l-1.6,3.3H11V4.8
			c0.7-0.3,1.1-1.1,0.9-1.8c-0.3-0.7-1.1-1.1-1.8-0.9S8.9,3.2,9.2,3.9c0.1,0.4,0.5,0.7,0.9,0.9v1.5H9.8L8.2,3L10.5,0z M10.5,3.9
			c-0.3,0-0.5-0.2-0.5-0.5S10.2,3,10.5,3s0.5,0.2,0.5,0.5S10.7,3.9,10.5,3.9 M9.9,7.3h1.2l0.6,1.9H9.2L9.9,7.3z M9.1,17.3v-7.2h2.8
			v2.4L9.1,17.3z M17.8,10.1l-0.7,1.2l-2.4-1.5l0.7-1.2L17.8,10.1z"/>
	</g>
</g>
</svg>
