<?xml version="1.0" encoding="utf-8"?>
<!-- Generator: Adobe Illustrator 22.1.0, SVG Export Plug-In . SVG Version: 6.00 Build 0)  -->
<svg version="1.1" id="Layer_1" xmlns="http://www.w3.org/2000/svg" xmlns:xlink="http://www.w3.org/1999/xlink" x="0px" y="0px"
	 viewBox="0 0 19.1 19.3" style="enable-background:new 0 0 19.1 19.3;" xml:space="preserve">
<style type="text/css">
	.st0{fill:#FFAB00;}
</style>
<title>m5</title>
<g id="Layer_2_1_">
	<g id="Layer_1-2">
		<path class="st0" d="M18.7,7.2c-0.2,0.4-0.5,0.7-0.9,0.9L17,8.6l-2.5-1.5l0.1-0.9c0.1-1,0.7-1.9,1.6-2.3L19,2.6v1.2h-0.1L17.8,4
			c-1,0.2-1.8,1-2,2c-0.1,0.2,0.1,0.5,0.3,0.5c0,0,0,0,0,0h0.1c0.2,0,0.4-0.1,0.4-0.3c0.2-0.7,0.7-1.2,1.3-1.3l1-0.3l0,1
			C19.1,6.2,18.9,6.8,18.7,7.2 M10.8,18.7c-0.4,0.6-1.1,0.9-1.8,0.5c-0.6-0.4-0.9-1.1-0.5-1.8c0,0,0,0,0-0.1l0,0l3.3-5.5l0,0l1.2-2
			l1.1,0.7l1.1,0.7L10.8,18.7z M3.2,8.1l1.1-0.7l3.2,4.9V17L2.1,8.8L3.2,8.1z M0.9,3.7l0.5,0.8L0.7,5L0,4L0.9,3.7z M3.6,6.7L3.4,6.8
			L1.8,7.9L1.7,6.7c0-0.1,0-0.1-0.1-0.2L1.1,5.8l0.7-0.5L2.3,6c0,0.1,0.1,0.1,0.1,0.1L3.6,6.7z M9.7,0l2.1,2.8l-1.5,3h-0.2V4.4
			c0.7-0.2,1-1,0.8-1.7s-1-1-1.7-0.8s-1,1-0.8,1.7C8.6,4,8.9,4.3,9.2,4.4v1.4H9.1l-1.5-3L9.7,0z M9.7,3.6c-0.2,0-0.5-0.1-0.5-0.4
			s0.1-0.5,0.4-0.5c0,0,0.1,0,0.1,0c0.2,0,0.4,0.3,0.4,0.5C10,3.5,9.9,3.6,9.7,3.6 M9.1,6.7h1.1l0.6,1.8H8.5L9.1,6.7z M8.4,15.9V9.3
			H11v2.3L8.4,15.9z M16.4,9.3l-0.7,1.1l-2.2-1.4L14.2,8L16.4,9.3z"/>
	</g>
</g>
</svg>
