<?xml version="1.0" encoding="utf-8"?>
<!-- Generator: Adobe Illustrator 22.1.0, SVG Export Plug-In . SVG Version: 6.00 Build 0)  -->
<svg version="1.1" id="Layer_1" xmlns="http://www.w3.org/2000/svg" xmlns:xlink="http://www.w3.org/1999/xlink" x="0px" y="0px"
	 viewBox="0 0 20 19.2" style="enable-background:new 0 0 20 19.2;" xml:space="preserve">
<style type="text/css">
	.st0{fill:#FFAB00;}
</style>
<title>m6</title>
<g id="Layer_2_1_">
	<g id="Layer_1-2">
		<path class="st0" d="M13.8,14.1c-0.2-0.1-0.4,0-0.5,0.2c0,0,0,0,0,0c-0.1,0.2-0.2,0.3-0.4,0.4c-0.3,0-0.5-0.1-0.6-0.3
			c-0.7-1-1.4-1.3-2.3-0.9c-0.9-0.4-1.6-0.1-2.3,0.9c-0.1,0.2-0.4,0.3-0.6,0.3c-0.2,0-0.4-0.2-0.4-0.4C6.4,14.1,6.2,14,6,14.1
			c-0.2,0.1-0.3,0.3-0.2,0.5c0.2,0.5,0.6,0.8,1.1,0.9H7c0.5,0,1-0.3,1.2-0.7c0.6-0.9,1-0.8,1.5-0.5h0.4c0.5-0.3,0.8-0.4,1.5,0.5
			c0.3,0.4,0.7,0.7,1.2,0.7H13c0.5-0.1,0.9-0.4,1.1-0.9C14.2,14.4,14.1,14.2,13.8,14.1C13.9,14.1,13.9,14.1,13.8,14.1"/>
		<path class="st0" d="M12.6,9.3c-0.9,0-1.6,0.6-1.9,1.4c-0.5-0.2-1.1-0.2-1.6,0C8.8,9.7,7.6,9.1,6.6,9.4S5,10.9,5.3,11.9
			c0.3,1.1,1.5,1.6,2.5,1.3c0.7-0.2,1.3-0.9,1.4-1.7c0.5-0.3,1-0.3,1.5,0c0.1,1.1,1.1,1.9,2.2,1.7s1.9-1.1,1.7-2.2
			C14.5,10.1,13.7,9.3,12.6,9.3 M7.2,12.5C6.6,12.5,6,12,6,11.3c0-0.6,0.5-1.2,1.2-1.2s1.2,0.5,1.2,1.2c0,0,0,0,0,0
			C8.4,12,7.9,12.5,7.2,12.5 M12.6,12.5c-0.6,0-1.2-0.5-1.2-1.2c0-0.6,0.5-1.2,1.2-1.2c0.6,0,1.2,0.5,1.2,1.2c0,0,0,0,0,0
			C13.8,12,13.3,12.5,12.6,12.5"/>
		<path class="st0" d="M18.5,12.5L18.5,12.5L18.5,12.5L18.5,12.5L18.5,12.5l-0.2-0.2l0,0l-0.1-0.1l0,0l-0.1-0.1l0,0l-0.1-0.1l0,0
			L17.8,12l0,0h-0.1l0,0h-0.1l0,0h-0.1h-0.9V7h0.1v0.9c0,0.2,0.2,0.4,0.4,0.4c0.5,0,0.9,0.4,0.9,0.9c0,0,0,0,0,0
			c0,0.3-0.1,0.5-0.3,0.7c-0.1,0.1-0.1,0.2-0.1,0.4c0,0.1,0.1,0.2,0.3,0.3c0.6,0.2,1,0.8,1,1.4c0,0.2,0,0.4-0.1,0.6 M17,15h-1v-0.1
			l0,0c0-0.1,0-0.1,0-0.2l0,0c0-0.1,0-0.1,0-0.1l0,0v-0.1c0,0,0,0,0-0.1v-0.1l0,0v-0.2c0,0,0,0,0-0.1V14c0,0,0,0,0-0.1
			c0,0,0-0.1,0-0.1l0,0c0-0.1,0-0.1,0-0.2l0,0c0,0,0-0.1,0-0.1c0,0,0,0,0-0.1v-0.4l0,0v-0.1h0.6c0.1,0,0.2,0,0.3,0.1
			c0.3,0.1,0.6,0.4,0.7,0.7c0,0.1,0.1,0.3,0.1,0.4C17.7,14.5,17.4,14.9,17,15 M15.6,12.3v0.4c0,0.2,0,0.3,0,0.5
			c-0.1,0.7-0.3,1.4-0.6,2c-0.6,1.3-1.7,2.2-3,2.8c-1.4,0.6-2.9,0.6-4.3,0c-1.3-0.5-2.4-1.5-3-2.8c-0.4-0.8-0.6-1.7-0.6-2.6v-4l0,0
			h0.1h0.1h0.1h0.1h0.1h0.1h0.1h0.1h0.1h0.1l0,0h0.2l0,0l0.4-0.1l0,0h0.2H6h0.1h0.1h0.1h0.1h0.1h0.1h0.1h0.1h0.1H7h0.2l0,0h0.2l0,0
			h0.2l0,0l0.8-0.1l0,0h0.2l0,0h0.2l0,0h0.2l0,0H9h0.1h0.2l0,0h0.2h0.1h0.2l0,0h0.2l0,0l1-0.1l0,0H11h1h0.1h0.4h0.2l0,0l0.8-0.1h1.2
			l0.9-0.1L15.6,12.3z M2.8,15c-0.6,0-1.1-0.5-1.1-1.1c0,0,0,0,0-0.1c0-0.6,0.5-1.1,1.1-1.1h0.6v0.1c0,0.1,0,0.1,0,0.2v0.1
			c0,0,0,0.1,0,0.1v0.1c0,0,0,0.1,0,0.1l0,0c0,0.1,0,0.1,0,0.2l0,0c0,0,0,0.1,0,0.1c0,0,0,0,0,0.1v0.1c0,0,0,0,0,0.1v0.2l0,0v0.1
			c0,0,0,0,0,0.1v0.1l0,0c0,0,0,0.1,0,0.1l0,0v0.1c0,0,0,0,0,0.1v0.1L2.8,15z M1.6,12.3L1.6,12.3L1.6,12.3L1.6,12.3L1.6,12.3
			L1.6,12.3c0.1-0.3,0.3-0.6,0.6-0.8c0.2-0.1,0.2-0.3,0.2-0.5c0-0.1-0.1-0.2-0.1-0.3c0-0.4,0.3-0.7,0.7-0.8c0.2,0,0.4-0.2,0.4-0.4V9
			l0,0v2.9H2.3l0,0l0,0h0l0,0l0,0l0,0l0,0l0,0l0,0l0,0h0l0,0l0,0l0,0l0,0l0,0 M5.9,2.2C5.2,1.7,4.3,1.5,3.5,1.5
			c0.3-0.6,0.6-0.7,0.8-0.6c0.5,0.4,0.9,1,1.1,1.6L5.3,2.6 M18.5,10c0.1-0.3,0.2-0.6,0.2-0.9c0-0.4-0.1-0.7-0.3-1
			C19.5,7,20.1,5.5,20,3.9c-0.1-0.6-0.4-1.2-0.8-1.7c-0.6-0.6-1.2-1.1-2-1.5c-1.8-0.8-3.9-0.9-5.8-0.5c-1.8,0.4-3.6,1-5.2,1.9
			C5.6,1.3,4.8,0.7,3.9,0.4C3.4,0.3,2.8,0.5,2.4,1C2.2,1.3,2.1,1.6,2,2l0,0C1.9,2.1,1.9,2.3,2,2.4c0.1,0.2,0.3,0.2,0.6,0.2
			c0.7,0,1.3,0.1,1.9,0.4C4,3.4,3.4,3.8,2.8,4.2C2.6,4.3,2.5,4.6,2.7,4.8C2.8,4.9,3.1,5,3.2,4.9C4.2,4.2,5.2,3.6,6.2,3l0,0
			c1.7-0.9,3.5-1.6,5.3-2c1.8-0.4,3.7-0.2,5.3,0.5C18,1.9,18.9,2.8,19.2,4c0,1.3-0.5,2.6-1.5,3.6c-0.1-0.1-0.2-0.1-0.4-0.1V6.8h0.4
			c0.2,0,0.4-0.2,0.4-0.5c0-0.2-0.2-0.4-0.5-0.4h-0.8h-0.4H16C13.2,6.2,7.4,6.5,3.6,7.8h0l0,0L3.4,8l0,0H3.3L2.9,8.2L2.8,8.3
			L2.5,8.4C2.3,8.4,2.1,8.7,2.2,8.9c0,0,0,0.1,0.1,0.1c0,0.1,0.1,0.1,0.1,0.2C1.7,9,1.1,8.5,0.9,7.9C0.7,7.1,1.1,6.4,1.7,6h0.1
			l0.1-0.1C2.1,5.8,2.2,5.5,2,5.3c0,0,0,0,0,0C1.9,5.1,1.6,5.1,1.4,5.2c0,0,0,0,0,0L1.3,5.3H1.2C0.3,5.9-0.1,7,0.1,8
			c0.2,0.8,0.8,1.5,1.6,1.8c-0.2,0.3-0.3,0.6-0.3,1c0,0.1,0,0.2,0,0.3c-0.8,0.7-1,2-0.5,2.9c0.1,1,1,1.7,1.9,1.7h1.4
			c0.7,1.2,1.7,2.2,3,2.8c0.3,0.1,0.7,0.3,1,0.4C8.4,19,8.5,19,8.7,19l0.3,0c0.3,0,0.6,0.1,0.9,0.1c0.3,0,0.6,0,0.8-0.1l0.4-0.1
			c0.1,0,0.3-0.1,0.4-0.1c0.4-0.1,0.7-0.2,1.1-0.4l0,0c1.3-0.6,2.3-1.6,3-2.8H17c1.1,0,2-0.9,2-2c0-0.1,0-0.3,0-0.4
			C19.7,12.3,19.5,10.8,18.5,10"/>
	</g>
</g>
</svg>
