<?xml version="1.0" encoding="utf-8"?>
<!-- Generator: Adobe Illustrator 22.1.0, SVG Export Plug-In . SVG Version: 6.00 Build 0)  -->
<svg version="1.1" id="Layer_1" xmlns="http://www.w3.org/2000/svg" xmlns:xlink="http://www.w3.org/1999/xlink" x="0px" y="0px"
	 viewBox="0 0 21.7 20.8" style="enable-background:new 0 0 21.7 20.8;" xml:space="preserve">
<style type="text/css">
	.st0{fill:#FFAB00;}
</style>
<title>m7</title>
<g id="Layer_2_1_">
	<g id="Layer_1-2">
		<path class="st0" d="M15,15.2c-0.2-0.1-0.5,0-0.6,0.3c0,0,0,0,0,0c-0.1,0.2-0.2,0.4-0.5,0.4c-0.3,0-0.5-0.1-0.7-0.3
			c-0.8-1.1-1.6-1.4-2.5-0.9c-1-0.4-1.8-0.2-2.5,0.9c-0.1,0.2-0.4,0.4-0.7,0.3c-0.2,0-0.4-0.2-0.5-0.4c-0.1-0.2-0.3-0.3-0.6-0.3
			c-0.2,0.1-0.3,0.4-0.3,0.6c0.2,0.5,0.6,0.9,1.2,1h0.2c0.5,0,1-0.3,1.3-0.7c0.7-1,1.1-0.8,1.6-0.6H11c0.5-0.3,0.9-0.4,1.6,0.6
			c0.3,0.4,0.8,0.7,1.3,0.7h0.2c0.6-0.1,1-0.5,1.2-1C15.4,15.6,15.3,15.3,15,15.2"/>
		<path class="st0" d="M13.7,10.1c-0.9,0-1.8,0.6-2.1,1.5c-0.6-0.2-1.2-0.2-1.8,0c-0.4-1.1-1.6-1.8-2.7-1.4s-1.8,1.6-1.4,2.7
			c0.4,1.1,1.6,1.8,2.7,1.4c0.8-0.3,1.4-0.9,1.5-1.8c0.5-0.3,1.1-0.3,1.6,0c0.2,1.2,1.2,2,2.4,1.9s2-1.2,1.9-2.4
			C15.7,10.9,14.8,10.1,13.7,10.1 M7.8,13.5c-0.7,0-1.3-0.6-1.3-1.3c0-0.7,0.6-1.3,1.3-1.3c0.7,0,1.3,0.6,1.3,1.3c0,0,0,0,0,0
			C9.1,12.9,8.5,13.5,7.8,13.5 M13.7,13.5c-0.7,0-1.3-0.6-1.3-1.3S13,11,13.7,11s1.3,0.6,1.3,1.3c0,0,0,0,0,0
			C14.9,12.9,14.4,13.5,13.7,13.5"/>
		<path class="st0" d="M20.1,13.6L20.1,13.6L20.1,13.6L20.1,13.6L20.1,13.6l-0.2-0.2l0,0l-0.1-0.1l0,0l-0.1-0.1l0,0l-0.1-0.1l0,0
			L19.3,13l0,0l-0.1-0.1l0,0H19l0,0h-0.1l0,0h-0.1h-0.8V7.5H18v1c0,0.2,0.2,0.4,0.5,0.4c0.6,0,1,0.4,1,1c0,0.3-0.1,0.6-0.3,0.7
			c-0.2,0.2-0.2,0.4,0,0.6c0,0.1,0.1,0.1,0.2,0.1c0.9,0.4,1.3,1.3,0.9,2.2c0,0,0,0,0,0 M18.6,16.2h-1.2v-0.1c0,0,0,0,0,0l0.1-0.2
			l0,0c0,0,0-0.1,0-0.2v-0.1v-0.1c0,0,0,0,0-0.1c0,0,0-0.1,0-0.1l0,0c0-0.1,0-0.1,0-0.2c0,0,0,0,0-0.1c0,0,0-0.1,0-0.1s0,0,0-0.1
			v-0.1v-0.1c0-0.1,0-0.1,0-0.2l0,0c0,0,0-0.1,0-0.1c0,0,0,0,0-0.1c0,0,0-0.1,0-0.1v-0.1c0-0.1,0-0.1,0-0.2l0,0v-0.2h0.6
			c0.1,0,0.3,0,0.4,0.1c0.4,0.1,0.7,0.4,0.8,0.8c0,0.1,0.1,0.3,0.1,0.4c0,0.7-0.6,1.2-1.2,1.2 M16.5,13.4v0.4c0,0.2,0,0.4,0,0.6
			c-0.1,0.8-0.3,1.5-0.6,2.2c-0.7,1.4-1.8,2.4-3.2,3c-1.5,0.6-3.2,0.6-4.7,0c-2.3-0.9-3.9-3.2-3.9-5.8V9.3l0,0h0.1h0.1h0.1h0.1h0.1
			h0.1h0.1h0.1H5h0.2l0,0l0.2-0.1l0,0l0.4-0.1l0,0h0.2l0,0h0.2h0.1h0.2h0.1h0.2h0.1h0.2h0.1h0.2H7h0.2h0.6H8h0h0.2l0,0
			C8.5,9.1,8.8,9,9.1,9l0,0h0.2l0,0h0.2h0.1h0.2l0,0h0.2h0.1h0.2h0.1h0.2l0,0h0.2l0,0L11,8l0,0l1.1-0.1l0,0h0.2h1.3h0.2l0,0l0.8-0.1
			l0,0h0.2H16l1-0.1L16.5,13.4z M3,16.2c-0.7,0-1.2-0.5-1.2-1.2l0,0c0-0.7,0.5-1.3,1.2-1.3h0.6v0.2c0,0.1,0,0.1,0,0.2c0,0,0,0,0,0.1
			v0.1c0,0,0,0,0,0.1c0,0,0,0.1,0,0.1l0,0c0,0.1,0,0.1,0,0.2v0.1c0,0,0,0.1,0,0.1s0,0,0,0.1V15c0,0,0,0,0,0.1c0,0.1,0,0.1,0,0.2l0,0
			c0,0,0,0.1,0,0.1c0,0,0,0,0,0.1v0.1v0.1c0,0,0,0.1,0,0.1l0,0l0.1,0.2c0,0,0,0,0,0.1v0.1L3,16.2z M1.7,13.3L1.7,13.3L1.7,13.3
			L1.7,13.3L1.7,13.3L1.7,13.3c0.1-0.4,0.3-0.7,0.6-0.9c0.1-0.1,0.1-0.3,0-0.4c0-0.1-0.1-0.2-0.1-0.3c0-0.5,0.4-0.9,0.9-1
			c0.2,0,0.4-0.2,0.4-0.4V9.7l0,0v3.2H2.5l0,0H2.4l0,0h0l0,0l0,0l0,0l0,0h0l0,0h0l0,0l0,0l0,0h0l0,0 M6.2,2.4c-0.9-0.5-2-0.6-3-0.4
			c0.3-0.7,0.7-0.7,0.9-0.7C4.8,1.6,5.5,2,5.9,2.7L5.7,2.8 M20,10.8c0.2-0.3,0.2-0.6,0.2-0.9c0-0.4-0.1-0.8-0.4-1.1
			c1.2-1.2,1.9-2.8,1.8-4.5c-0.1-0.7-0.4-1.3-0.9-1.8c-0.6-0.7-1.4-1.2-2.2-1.6c-2-0.8-4.2-1-6.3-0.6c-2,0.4-3.9,1.1-5.7,2.1
			C6.1,1.4,5.2,0.7,4.2,0.4C3.6,0.3,3,0.6,2.6,1.1C2.4,1.4,2.3,1.8,2.1,2.2l0,0c-0.1,0.1-0.1,0.3,0,0.4c0.1,0.2,0.3,0.2,0.7,0.3
			c0.7,0,1.4,0.1,2.1,0.4C4.3,3.6,3.6,4,3,4.5C2.8,4.7,2.7,4.9,2.9,5.1C3,5.3,3.3,5.4,3.5,5.2c1-0.7,2.1-1.4,3.2-2l0,0
			c1.8-1,3.8-1.7,5.8-2.1c1.9-0.4,3.9-0.3,5.8,0.5c1.7,0.8,2.5,1.9,2.6,2.7c0,1.5-0.5,2.9-1.6,3.9C19.1,8.1,18.9,8,18.8,8V7.4h0.5
			c0.2,0,0.4-0.2,0.4-0.5c0-0.2-0.2-0.4-0.4-0.4c0,0,0,0,0,0h-0.8h-0.5h-0.5C14.4,6.7,8,7,4,8.5H3.9l0,0L3.7,8.6l0,0H3.6L3.2,8.8
			L3,9L2.7,9.1C2.5,9.2,2.4,9.5,2.5,9.7c0,0.1,0.1,0.1,0.2,0.2C1.8,9.8,1.2,9.3,0.9,8.5c-0.1-0.8,0.2-1.6,0.9-2l0.1-0.1l0.2-0.1
			c0.2-0.2,0.2-0.4,0.1-0.6C2,5.5,1.7,5.5,1.5,5.6c0,0,0,0,0,0L1.4,5.8H1.3c-1,0.6-1.5,1.8-1.3,2.9c0.2,0.9,0.9,1.6,1.7,1.9
			c-0.2,0.3-0.4,0.7-0.4,1.1c0,0.1,0,0.2,0,0.3c-0.6,0.5-0.9,1.2-0.9,1.9c0,0.4,0.1,0.9,0.3,1.3c0.1,1.1,1,1.9,2.1,1.9h1.5
			c0.7,1.3,1.9,2.4,3.3,3c0.4,0.2,0.7,0.3,1.1,0.4l0.6,0.1l0.3,0.1c0.3,0,0.6,0.1,0.9,0.1c0.3,0,0.6,0,0.9-0.1l0.4-0.1l0.4-0.1
			c0.4-0.1,0.8-0.2,1.1-0.4l0,0c1.4-0.6,2.6-1.7,3.3-3h1.5c1.1,0,2.1-0.9,2.1-2.1c0-0.2,0-0.3,0-0.5c0.9-1.1,0.7-2.8-0.4-3.6
			C20.1,10.9,20,10.8,20,10.8"/>
	</g>
</g>
</svg>
