<?xml version="1.0" encoding="utf-8"?>
<!-- Generator: Adobe Illustrator 22.1.0, SVG Export Plug-In . SVG Version: 6.00 Build 0)  -->
<svg version="1.1" id="Layer_1" xmlns="http://www.w3.org/2000/svg" xmlns:xlink="http://www.w3.org/1999/xlink" x="0px" y="0px"
	 viewBox="0 0 19.3 21.6" style="enable-background:new 0 0 19.3 21.6;" xml:space="preserve">
<style type="text/css">
	.st0{fill:#FFAB00;}
</style>
<title>m7</title>
<g id="Layer_2_1_">
	<g id="Layer_1-2">
		<path class="st0" d="M16.9,19.1c0,0.3-0.2,0.5-0.5,0.5h-3.3c-0.3,0-0.5-0.2-0.5-0.5v-1.5c0-0.3,0.2-0.5,0.5-0.5h3.3
			c0.3,0,0.5,0.2,0.5,0.5c0,0,0,0,0,0V19.1z M17.1,14.4l-4.3-1.7c-0.1,0-0.3,0-0.4,0c-0.1,0.1-0.2,0.2-0.3,0.3L11,16l-0.2-0.6
			l0.3-0.8c0.1-0.1,0.1-0.3,0-0.5c-0.1-0.1-0.3-0.2-0.4-0.2H8.6c-0.2,0-0.3,0.1-0.4,0.2c-0.1,0.1-0.1,0.3,0,0.5l0.3,0.8L8.2,16
			l-1.1-3c-0.1-0.1-0.1-0.2-0.3-0.3c-0.1-0.1-0.3-0.1-0.4,0l-4.3,1.7C0.9,14.9,0,16.2,0,17.6v3.5c0,0.3,0.2,0.5,0.5,0.5h18.3
			c0.3,0,0.5-0.2,0.5-0.5c0,0,0,0,0,0v-3.5C19.3,16.2,18.4,14.9,17.1,14.4 M13.9,7.8c-0.2,0.8-0.6,0.9-0.8,0.9l0,0
			c-0.2-0.1-0.5,0.1-0.5,0.3c-0.3,0.7-0.8,1.4-1.3,2.1c-0.2,0.1-0.4,0.3-0.6,0.3c-0.7,0.3-1.4,0.3-2.1,0c-0.2-0.1-0.4-0.2-0.6-0.3
			C7.5,10.4,7,9.7,6.7,9C6.6,8.8,6.5,8.7,6.3,8.7H6.1c-0.2,0-0.6-0.1-0.8-0.9c-0.1-0.3-0.1-0.6,0-0.9c0-0.1,0.1-0.1,0.2-0.1
			c0.3,0,0.4-0.3,0.4-0.5c0,0,0,0,0,0c0,0,0-0.2,0-0.6c0.5-0.2,1-0.5,1.3-0.9c0.2-0.3,0.4-0.5,0.5-0.9c0.4,0.3,0.9,0.6,1.4,0.9
			c1.3,0.4,2.7,0.7,4.1,0.8c0,0.2,0,0.5,0,0.7c0,0.2,0.1,0.5,0.4,0.5c0,0,0,0,0,0c0.1,0,0.1,0.1,0.2,0.1C14,7.2,14,7.5,13.9,7.8
			 M14.7,6.4c-0.1-0.2-0.2-0.3-0.4-0.4c0-0.3,0-0.6-0.1-0.9c0-0.4,0.2-2.9-1.3-4c-0.9-0.6-1.9-1-3-1C9.1,0,8.3,0.3,7.7,0.7
			C7.3,1,6.9,1.3,6.7,1.8C5.8,1.8,5,2.4,4.8,3.2C4.5,4,4.6,4.8,5,5.5C5,5.6,5,5.8,5,6C4.8,6.1,4.7,6.2,4.6,6.4
			C4.3,6.9,4.2,7.5,4.4,8.1c0.3,1.3,1.1,1.6,1.5,1.6c0.4,0.8,0.8,1.5,1.4,2.1c0.3,0.2,0.6,0.4,0.9,0.5c0.9,0.4,1.9,0.4,2.8,0
			c0.3-0.1,0.6-0.3,0.9-0.5c0.6-0.6,1-1.3,1.4-2.1c0.4-0.1,1.2-0.3,1.5-1.6C15.1,7.5,15,6.9,14.7,6.4"/>
	</g>
</g>
</svg>
