<?xml version="1.0" encoding="utf-8"?>
<!-- Generator: Adobe Illustrator 22.1.0, SVG Export Plug-In . SVG Version: 6.00 Build 0)  -->
<svg version="1.1" id="Layer_1" xmlns="http://www.w3.org/2000/svg" xmlns:xlink="http://www.w3.org/1999/xlink" x="0px" y="0px"
	 viewBox="0 0 19 20.5" style="enable-background:new 0 0 19 20.5;" xml:space="preserve">
<style type="text/css">
	.st0{fill:#FFAB00;}
</style>
<title>m8</title>
<g id="Layer_2_1_">
	<g id="Layer_1-2">
		<path class="st0" d="M7.4,2c0.1,0,0.2,0.1,0.3,0.1c0.4,0.6,1,1,1.7,1.3l0,0c0.2,0.1,0.4,0.2,0.6,0.2l0,0l1.3,0.3
			c0.8,0.1,1.5,0.3,2.3,0.6c0-0.2,0-0.4,0-0.6l0,0c0-0.2,0-0.4-0.1-0.6l0,0V3.1c-0.3-0.7-0.8-1.4-1.5-1.8l0,0
			c-0.7-0.4-1.5-0.7-2.3-0.7H9.5c-1.7,0-1.9,0.7-1.9,0.8l0,0c0,0,0,0.1,0,0.1L7.5,1.6c0,0-0.1,0-0.2,0H7.2H7.2
			c-0.1,0-0.2-0.1-0.4-0.1c-0.5,0-1,0.3-1.2,0.8l0,0c-0.4,0.6-0.5,1.3-0.2,2c0.4-0.2,0.8-0.4,1.1-0.8c0.3-0.4,0.5-0.8,0.6-1.3
			C7.1,2.2,7.2,2,7.4,2L7.4,2 M6.1,8.2c0.1,0,0.2,0.1,0.3,0.2c0.4,0.8,0.8,1.5,1.4,2.1c0.2,0.2,0.4,0.3,0.6,0.4
			c0.4,0.1,0.8,0.2,1.1,0.2c0.4,0,0.8,0,1.1-0.2c0.2-0.1,0.4-0.2,0.6-0.4c0.5-0.7,1-1.4,1.4-2.2c0-0.2,0.2-0.3,0.4-0.2l0,0
			c0.3,0,0.7-0.1,1-1c0.1-0.3,0.1-0.7,0-1c-0.1-0.1-0.2-0.2-0.3-0.2c-0.2,0-0.3-0.2-0.3-0.3c0,0,0-0.1,0-0.3c0-0.2-0.1-0.3-0.2-0.5
			c-0.7-0.2-1.3-0.4-2-0.5L10,4.2l0,0C9.7,4.1,9.5,4.1,9.2,4C8.6,3.8,8,3.4,7.6,3C7.5,3.4,7.3,3.7,7,4C6.6,4.4,6.1,4.7,5.6,4.9
			c0,0.2,0,0.5,0,0.7c0,0.2-0.1,0.3-0.3,0.3C5.2,6,5.1,6.1,5,6.2c-0.1,0.3-0.1,0.7,0,1C5.3,8.1,5.8,8.2,6.1,8.2L6.1,8.2 M9.5,11.7
			c-0.5,0-0.9-0.1-1.4-0.3c-0.3-0.1-0.6-0.3-0.8-0.5c-0.6-0.6-1-1.4-1.4-2.1c-0.4,0-1.2-0.2-1.5-1.5C4.2,6.9,4.3,6.3,4.5,5.8
			C4.7,5.7,4.8,5.5,5,5.4C5,5.2,5,5,5,4.8C4.5,3.9,4.6,2.9,5.1,2l0,0c0.3-0.7,1-1.1,1.7-1.1l0,0c0.1,0,0.2,0,0.3,0
			C7.3,0.6,8,0,9.6,0h0.1c0.9,0,1.8,0.3,2.6,0.8c0.9,0.5,1.5,1.2,1.9,2.2c0.1,0.3,0.1,0.6,0.1,0.9l0,0c0,0.5-0.1,1.1-0.3,1.6l0,0
			c0.2,0.1,0.3,0.2,0.4,0.4c0.3,0.5,0.3,1,0.1,1.5c-0.3,1.3-1.1,1.5-1.5,1.5c-0.4,0.8-0.8,1.5-1.4,2.2c-0.2,0.2-0.5,0.4-0.8,0.5
			C10.4,11.7,10,11.7,9.5,11.7 M13.3,18.5h2.8v-1.5h-2.8V18.5z M16.4,19.1H13c-0.2,0-0.3-0.1-0.3-0.3c0,0,0,0,0,0v-2.1
			c0-0.2,0.1-0.3,0.3-0.3c0,0,0,0,0,0h3.4c0.2,0,0.3,0.1,0.3,0.3c0,0,0,0,0,0v2.1C16.7,19,16.6,19.1,16.4,19.1
			C16.4,19.2,16.4,19.2,16.4,19.1 M0.6,19.9h17.8v-3.2c0-1.1-0.7-2.1-1.7-2.5l-4.1-1.6l-1.5,4.1c0,0.1-0.2,0.2-0.3,0.2
			c-0.1,0-0.2-0.1-0.3-0.2l-0.7-2.1c0-0.1,0-0.1,0-0.2l0.2-0.6H8.9l0.2,0.6c0,0.1,0,0.1,0,0.2l-0.7,2.1c0,0.1-0.2,0.2-0.3,0.2
			c-0.1,0-0.2-0.1-0.3-0.2l-1.5-4.1l-4.1,1.6c-1,0.4-1.7,1.4-1.7,2.5V19.9z M18.7,20.5H0.3c-0.2,0-0.3-0.1-0.3-0.3v-3.5
			c0-1.4,0.8-2.6,2.1-3.1l4.4-1.7c0.1,0,0.2,0,0.2,0c0.1,0,0.1,0.1,0.2,0.2l1.3,3.6l0.4-1.2l-0.4-0.9c0-0.1,0-0.2,0-0.3
			C8.2,13,8.3,13,8.4,13h2.1c0.1,0,0.2,0.1,0.3,0.1c0.1,0.1,0.1,0.2,0,0.3l-0.4,0.9l0.4,1.2l1.3-3.6c0-0.1,0.1-0.1,0.2-0.2
			c0.1,0,0.2,0,0.2,0l4.4,1.7c1.3,0.5,2.1,1.7,2.1,3.1v3.5C19,20.3,18.9,20.5,18.7,20.5"/>
	</g>
</g>
</svg>
