<?xml version="1.0" encoding="utf-8"?>
<!-- Generator: Adobe Illustrator 22.1.0, SVG Export Plug-In . SVG Version: 6.00 Build 0)  -->
<svg version="1.1" id="Layer_1" xmlns="http://www.w3.org/2000/svg" xmlns:xlink="http://www.w3.org/1999/xlink" x="0px" y="0px"
	 viewBox="0 0 21.4 21.4" style="enable-background:new 0 0 21.4 21.4;" xml:space="preserve">
<style type="text/css">
	.st0{fill:#FFAB00;}
</style>
<title>m9</title>
<g id="Layer_2_1_">
	<g id="Layer_1-2">
		<path class="st0" d="M19.8,15.7H3L9.7,9l1.4,1.4l0,0l1.9,1.9c0.2,0.1,0.4,0.1,0.6-0.1c0.1-0.2,0.1-0.4,0-0.5L12,10.1l3.8-3.8
			l4.8,4.8V15C20.6,15.4,20.2,15.8,19.8,15.7 M18.2,20.6h-1.4l-2.3-4h1.4L18.2,20.6z M4.7,20.6H3.2l2.3-4H7L4.7,20.6z M0.8,15V3.3
			c0-0.4,0.3-0.8,0.8-0.8h18.2c0.4,0,0.8,0.3,0.8,0.8c0,0,0,0,0,0v6.6l-4.5-4.5c-0.2-0.2-0.4-0.2-0.6,0c0,0,0,0,0,0l-4.1,4.1L10,8.1
			C9.8,8,9.6,8,9.4,8.1c0,0,0,0,0,0l-7.6,7.6H1.6C1.2,15.7,0.9,15.4,0.8,15 M10,0.8h1.5v0.8H10V0.8z M19.9,1.7h-7.6V0.8
			c0-0.5-0.4-0.8-0.8-0.8c0,0,0,0,0,0H10C9.5,0,9.2,0.4,9.2,0.8v0.9H1.6C0.7,1.7,0,2.4,0,3.3V15c0,0.9,0.7,1.6,1.6,1.6h3l-2.5,4.2
			c-0.1,0.1-0.1,0.3,0,0.4c0.1,0.1,0.2,0.2,0.4,0.2h2.4c0.2,0,0.3-0.1,0.4-0.2L8,16.6h5.5l1,1.8h-4.5c-0.2,0-0.4,0.2-0.4,0.4l0,0
			c0,0.2,0.2,0.4,0.4,0.4c0,0,0,0,0,0H15l1.2,2.1c0.1,0.1,0.2,0.2,0.4,0.2H19c0.1,0,0.3-0.1,0.4-0.2c0.1-0.1,0.1-0.3,0-0.4l-2.4-4.2
			h3c0.9,0,1.5-0.7,1.6-1.6V3.3C21.4,2.4,20.7,1.7,19.9,1.7"/>
		<path class="st0" d="M8.3,18.3c-0.1,0-0.2,0-0.3,0.1c-0.1,0.1-0.1,0.2-0.1,0.3c0,0.1,0,0.2,0.1,0.3c0.1,0.1,0.2,0.1,0.3,0.1
			c0.1,0,0.2,0,0.3-0.1c0.1-0.1,0.1-0.2,0.1-0.3C8.8,18.5,8.6,18.3,8.3,18.3C8.3,18.3,8.3,18.3,8.3,18.3"/>
		<path class="st0" d="M14.5,12.8c-0.1,0-0.2,0-0.3,0.1c-0.1,0.1-0.1,0.2-0.1,0.3c0,0.1,0,0.2,0.1,0.3c0.1,0.1,0.2,0.1,0.3,0.1
			c0.1,0,0.2,0,0.3-0.1c0.1-0.1,0.1-0.2,0.1-0.3C15,13,14.8,12.8,14.5,12.8C14.5,12.8,14.5,12.8,14.5,12.8"/>
		<path class="st0" d="M4,5.8c0.5,0,0.9,0.4,0.9,0.9S4.5,7.6,4,7.6S3.1,7.2,3.1,6.7S3.5,5.8,4,5.8L4,5.8 M4,8.5c1,0,1.8-0.8,1.8-1.7
			C5.8,5.7,5,5,4,4.9c-1,0-1.8,0.8-1.8,1.7c0,0,0,0,0,0C2.3,7.7,3,8.4,4,8.5"/>
	</g>
</g>
</svg>
