<svg xmlns="http://www.w3.org/2000/svg" viewBox="0 0 14.46 13.65"><defs><style>.cls-1{fill:#ffab00;}</style></defs><title>mf-1</title><g id="Layer_2" data-name="Layer 2"><g id="Layer_1-2" data-name="Layer 1"><path class="cls-1" d="M5.36,7.65a46.1,46.1,0,0,0-3.63,4.14l2.58,1.86A35,35,0,0,0,7.15,8.94a51.76,51.76,0,0,0,3,4.71l2.62-1.86A37.85,37.85,0,0,0,9,7.65a27.23,27.23,0,0,0,5.45-1.22l-1-3.11a40,40,0,0,0-5.16,2.1A53.75,53.75,0,0,0,8.79,0H5.62c0,1,.16,2.81.44,5.45A33.94,33.94,0,0,0,1,3.32L0,6.43q2.54.68,5.36,1.22"/></g></g></svg>