<svg xmlns="http://www.w3.org/2000/svg" viewBox="0 0 16.12 22.22"><defs><style>.cls-1{fill:#fff;}</style></defs><title>pdf</title><g id="Layer_2" data-name="Layer 2"><g id="Layer_1-2" data-name="Layer 1"><path class="cls-1" d="M7.74,16.73a2.61,2.61,0,0,0-.54.05v3.46a2.49,2.49,0,0,0,.41,0A1.64,1.64,0,0,0,9.4,18.41a1.52,1.52,0,0,0-1.66-1.68"/><path class="cls-1" d="M3.12,16.72a2.43,2.43,0,0,0-.5,0v1.56a1.45,1.45,0,0,0,.4,0c.64,0,1-.32,1-.87s-.34-.77-.93-.77"/><path class="cls-1" d="M.87,14.8V.87H11V5.33a.44.44,0,0,0,.43.44h3.85v9Zm13.82,2h-2V18h1.9v1h-1.9v2.13H11.46V15.85h3.23Zm-4.9,3.68a3.75,3.75,0,0,1-2.44.68A10.64,10.64,0,0,1,6,21.12V15.93a9.66,9.66,0,0,1,1.62-.11,3.45,3.45,0,0,1,2.17.56,2.34,2.34,0,0,1,.89,2,2.68,2.68,0,0,1-.88,2.14m-5-1.79A2.47,2.47,0,0,1,3,19.27a2.49,2.49,0,0,1-.41,0v1.89H1.44V15.93a9,9,0,0,1,1.61-.11,2.55,2.55,0,0,1,1.62.42,1.53,1.53,0,0,1,.56,1.22,1.71,1.71,0,0,1-.48,1.26M16.12,5.33A.43.43,0,0,0,16,5L11.73.15h0L11.64.07h0l-.08,0H.87A.87.87,0,0,0,0,.87V21.35a.87.87,0,0,0,.87.87H15.25a.87.87,0,0,0,.87-.87v-16"/><path class="cls-1" d="M13.43,10.7c-.1.37-.3.42-.47.42a1.13,1.13,0,0,1-.45-.11c-.52-.32-1-.67-1.57-1h0c.91,0,1.52.06,1.54.06a1.35,1.35,0,0,1,.84.32.47.47,0,0,1,.1.36m-8.66-.37v0h0c.29-1.12.7-2.75.93-3.8h0C6.48,7.23,7.64,8.28,9,9.37H9l0,0a14.81,14.81,0,0,0-4.28.94M5.06,5h0C4.49,4.32,4.5,4,4.53,3.9s.28-.24.28-.24.18,0,.24,0a2.3,2.3,0,0,1,.21,1.46L5.06,5m-2.35,8h0a.7.7,0,0,1,.07-.45,4.76,4.76,0,0,1,1-.84c-.37,1.19-.91,1.3-1,1.3m9.82-3.53A15,15,0,0,0,11,9.31h-.89a47.29,47.29,0,0,1-4.2-3.57,1,1,0,0,0,0-.21,3.13,3.13,0,0,0-.35-2.28A.88.88,0,0,0,4.64,3a1.08,1.08,0,0,0-.73.69c-.14.46.08,1,.67,1.68L5.15,6C4.92,7.1,4.3,9.53,4,10.69A6.22,6.22,0,0,0,2.25,12l0,0,0,0a1.45,1.45,0,0,0-.1,1,.71.71,0,0,0,.42.39l0,0H2.7c.36,0,1.26-.2,1.74-2l.12-.45A14.13,14.13,0,0,1,9.86,10c.78.58,1.56,1.11,2.32,1.58l0,0a1.84,1.84,0,0,0,.76.18,1.12,1.12,0,0,0,1.11-.93v0a1.08,1.08,0,0,0-.24-.88,1.93,1.93,0,0,0-1.3-.55"/></g></g></svg>