<svg xmlns="http://www.w3.org/2000/svg" viewBox="0 0 22.22 22.23"><defs><style>.cls-1{fill:#fff;}</style></defs><title>print</title><g id="Layer_2" data-name="Layer 2"><g id="Layer_1-2" data-name="Layer 1"><rect class="cls-1" x="6.95" y="16.67" width="6.95" height="1.39"/><path class="cls-1" d="M5.56,1.39H16.67V4.17h1.39V1.39A1.39,1.39,0,0,0,16.67,0H5.56A1.39,1.39,0,0,0,4.17,1.39V4.17H5.56Z"/><rect class="cls-1" x="6.95" y="13.89" width="8.33" height="1.39"/><path class="cls-1" d="M19.45,9.72a1.39,1.39,0,1,1,1.39-1.39,1.39,1.39,0,0,1-1.39,1.39M16.67,20.84H5.56V12.5H16.67ZM20.84,5.56H1.39A1.39,1.39,0,0,0,0,7v8.33a1.39,1.39,0,0,0,1.39,1.39H4.17v4.17a1.39,1.39,0,0,0,1.39,1.39H16.67a1.39,1.39,0,0,0,1.39-1.39V16.67h2.78a1.38,1.38,0,0,0,1.38-1.39V7a1.38,1.38,0,0,0-1.38-1.39"/></g></g></svg>