<svg xmlns="http://www.w3.org/2000/svg" viewBox="0 0 36.78 35.2"><defs><style>.cls-1{fill:none;stroke:#fff;stroke-miterlimit:10;stroke-width:1.72px;}</style></defs><title>rate1</title><g id="Layer_2" data-name="Layer 2"><g id="Layer_1-2" data-name="Layer 1"><path class="cls-1" d="M.91,13.51a1,1,0,0,1,.78-.66l10.94-1.56L17.55,1.4a1,1,0,0,1,.88-.54,1,1,0,0,1,.87.55l4.85,9.92L35.09,13a1,1,0,0,1,.54,1.65L27.69,22.3l1.83,10.9a1,1,0,0,1-1.41,1l-9.76-5.17-9.8,5.12a1,1,0,0,1-.45.1,1,1,0,0,1-1-1,.78.78,0,0,1,0-.22L9.05,22.25,1.17,14.51a1,1,0,0,1-.26-1"/></g></g></svg>