<svg xmlns="http://www.w3.org/2000/svg" viewBox="0 0 35.06 33.48"><defs><style>.cls-1{fill:#ffab00;}</style></defs><title>rate2</title><g id="Layer_2" data-name="Layer 2"><g id="Layer_1-2" data-name="Layer 1"><path class="cls-1" d="M.05,12.65A1,1,0,0,1,.83,12l10.94-1.56L16.69.54A1,1,0,0,1,17.57,0a1,1,0,0,1,.87.55l4.85,9.92L34.23,12.1a1,1,0,0,1,.79.66,1,1,0,0,1-.25,1l-7.94,7.7,1.83,10.89a.93.93,0,0,1-.39.95.88.88,0,0,1-.56.19,1,1,0,0,1-.46-.12l-9.76-5.17-9.8,5.12a1,1,0,0,1-1.42-.87.78.78,0,0,1,0-.22L8.19,21.39.31,13.65a1,1,0,0,1-.26-1"/></g></g></svg>