<svg xmlns="http://www.w3.org/2000/svg" viewBox="0 0 103.95 103.95"><defs><style>.cls-1{fill:#fff;}.cls-2{fill:#241f21;}.cls-3{fill:#1d1d1b;}</style></defs><title>s1</title><g id="Layer_2" data-name="Layer 2"><g id="Layer_1-2" data-name="Layer 1"><path class="cls-1" d="M91.94,0H23.49A23.49,23.49,0,0,0,0,23.49V91.94a12,12,0,0,0,20.46,8.48l79.95-80A12,12,0,0,0,91.94,0"/><path class="cls-2" d="M24.08,42.64c.68,1.91.49,2.26-.62,3.36l-3.84,3.84-.14-6c-.13-3.9-.51-5.93-2.3-7.72a4.76,4.76,0,0,0-6.91,0,5.29,5.29,0,0,0-1.57,4l.5,2.83.86,0c-.27-1.33-.52-3.3.88-4.7s3.43-1.42,5.15.31,2.16,4.74,2.41,7.54c.16,2.21.18,4.53.16,6.81l.47.47,7.67-7.68c-.67-1.16-1.37-2.27-2-3.4ZM20.24,26.16C17.16,29.24,19.69,34,22.68,37c3.25,3.25,7.74,5.52,10.84,2.42S34,31.62,31,28.62c-3.16-3.16-7.71-5.54-10.79-2.46m.65.69c1.85-1.85,5.4.68,8.32,3.6s5.46,6.44,3.61,8.29-5.48-.72-8.35-3.59-5.45-6.43-3.58-8.3M37.48,9.16l-1.15.21,5.34,21.79L42.75,31Zm-8.33,8.09c-2.1,2.1-.9,5.05.76,6.71s4.59,2.83,6.68.74.87-5.05-.77-6.69-4.6-2.83-6.67-.76m.63.59c1.28-1.27,3.53.62,4.58,1.66s2.92,3.29,1.64,4.56-3.57-.57-4.62-1.62-2.87-3.32-1.6-4.6m12.81-2.42c-2.09,2.1-.88,5.07.78,6.73s4.6,2.84,6.69.74.86-5-.78-6.69-4.62-2.85-6.69-.78m.62.62c1.27-1.28,3.53.61,4.57,1.66s2.94,3.31,1.69,4.56-3.6-.6-4.62-1.63S42,17.29,43.21,16"/><path class="cls-3" d="M34.11,52.12c-.62.62-.68,1.18-.17,1.68a1.16,1.16,0,0,0,1.86-.07,1.18,1.18,0,0,0,.37-.89,1.23,1.23,0,0,0-.38-.9q-.75-.75-1.68.18m9.91,4-1.23,1.23a3.65,3.65,0,0,0-1-1.92,3.57,3.57,0,0,0-2.22-1.1,2.71,2.71,0,0,0-2.28.86,3.43,3.43,0,0,0-1.07,2.16,2.72,2.72,0,0,0,.84,2.23,3.67,3.67,0,0,0,2.47,1L35.1,65.06a1.2,1.2,0,0,1-1.92,0l-1.76-1.76-1.29,1.28,1.94,1.94a3.31,3.31,0,0,0,1.85,1,2.15,2.15,0,0,0,1.94-.59L38,64.73c1.21-1.21,1.91-1.93,2.12-2.14,1.5-1.51,2.23-2.41,2.17-2.7a10.88,10.88,0,0,0,3-2.47Zm-3,2.44c-1.27.45-2.15.43-2.65-.07a1.24,1.24,0,0,1-.37-1,1.34,1.34,0,0,1,.4-1,1.42,1.42,0,0,1,1.1-.43,1.58,1.58,0,0,1,1.11.49,2,2,0,0,1,.41,2m8.34-7.77a2.51,2.51,0,0,1-1.06.75c-.33.07-.7-.11-1.12-.54l-1.77-1.76-1.28,1.28,1.77,1.76a1.62,1.62,0,0,1,.56,1,1.43,1.43,0,0,1-.53.95L43.58,56.6l1.27,1.27,2.76-2.76a2.69,2.69,0,0,0,.71-1.71,3.13,3.13,0,0,0,1.08-.21,8.58,8.58,0,0,0,1.24-1.11Zm1,5c-.55.55-.59,1.05-.12,1.52a.93.93,0,0,0,.84.27,1.33,1.33,0,0,0,.82-.42,1.13,1.13,0,0,0,.35-.77,1,1,0,0,0-.31-.78c-.47-.46-1-.41-1.58.18M47.9,58.29c-.54.54-.58,1.05-.11,1.52a1,1,0,0,0,.84.27,1.42,1.42,0,0,0,.82-.42,1.16,1.16,0,0,0,.34-.78,1,1,0,0,0-.3-.77q-.7-.7-1.59.18M45.25,41.14q-.91.9-.15,1.68a1.16,1.16,0,0,0,1.84-.06,1.2,1.2,0,0,0,.37-.89,1.26,1.26,0,0,0-.37-.89c-.51-.51-1.08-.46-1.69.16m10.29,3.5-1.71,1.71a3.73,3.73,0,0,0-1.1-2,3.22,3.22,0,0,0-2.19-1,2.82,2.82,0,0,0-2.23.87,3.44,3.44,0,0,0-1.08,2.21,2.85,2.85,0,0,0,.93,2.24,3.56,3.56,0,0,0,2.39,1l-1.89,1.89,1.28,1.27q3-3,3.3-4a3.86,3.86,0,0,0,1.5-.92L56,46.63q.61-.6.78-.72Zm-3.48,2.91q-1.85.73-2.64-.06a1.3,1.3,0,0,1-.39-1,1.44,1.44,0,0,1,.44-1,1.35,1.35,0,0,1,1.09-.38,1.64,1.64,0,0,1,1.1.47,2.19,2.19,0,0,1,.4,2m-.55-13.06c-.61.61-.67,1.17-.16,1.67a1.15,1.15,0,0,0,.92.38,1.4,1.4,0,0,0,.93-.44,1.22,1.22,0,0,0,.37-.9,1.24,1.24,0,0,0-.38-.89q-.75-.75-1.68.18m11.22,3c-1.09,1.09-1.82,1.45-2.19,1.09l.54-1.84q-2.64-2.64-5.25,0l-3.16,3.16,1.45,1.09,2.24-2.24a9.87,9.87,0,0,1,1.19-1.08A1.75,1.75,0,0,1,59,37.44c-.67,2.36-1,3.64-1.14,3.85a12.57,12.57,0,0,1-3,4l1.27,1.28a20,20,0,0,0,2.8-3.2,17.08,17.08,0,0,0,1.38-4l.82.5c.66.4,1.61,0,2.84-1.16ZM61.16,28q-.82.82-.12,1.53a1,1,0,0,0,.85.3,1.49,1.49,0,0,0,.82-.43,1.17,1.17,0,0,0,.35-.8,1,1,0,0,0-.31-.78q-.7-.71-1.59.18m-2.45,2.45q-.83.83-.12,1.53a1,1,0,0,0,.85.3,1.46,1.46,0,0,0,.82-.43,1.17,1.17,0,0,0,.35-.8,1,1,0,0,0-.31-.78q-.7-.7-1.59.18m5.38.17-1.28,1.28,1.76,1.76a1.55,1.55,0,0,1,.56,1,1.36,1.36,0,0,1-.52,1l-2.34,2.35,1.27,1.27,2.74-2.74a2.33,2.33,0,0,0,.69-2,3.14,3.14,0,0,0-1-1.93Z"/></g></g></svg>