<svg xmlns="http://www.w3.org/2000/svg" viewBox="0 0 103.95 103.95"><defs><style>.cls-1{fill:red;}.cls-2{fill:#fff;}</style></defs><title>s2</title><g id="Layer_2" data-name="Layer 2"><g id="Layer_1-2" data-name="Layer 1"><path class="cls-1" d="M91.94,0H23.49A23.49,23.49,0,0,0,0,23.49V91.94a12,12,0,0,0,20.46,8.48l79.95-80A12,12,0,0,0,91.94,0"/><path class="cls-2" d="M48.25,49.61a3,3,0,0,1-1.22.84,5.89,5.89,0,0,1-1.44,0L37,50.26v1.87l6.43.21a1,1,0,0,1,.74.3c.35.35.28.78-.23,1.29l-4.41,4.41,1.57,1.19,4.3-4.31a2.91,2.91,0,0,0,.89-2.79,3.83,3.83,0,0,0,2.71-.8l.63-.63ZM46.57,36.33c-.59.59-.63,1.13-.13,1.63a1.05,1.05,0,0,0,.92.31,1.48,1.48,0,0,0,.9-.44,1.3,1.3,0,0,0,.39-.86,1.1,1.1,0,0,0-.35-.87c-.5-.5-1.08-.42-1.73.23m3.32.62c-.58.57-.63,1.11-.14,1.61a1.08,1.08,0,0,0,.91.32,1.48,1.48,0,0,0,.92-.44,1.25,1.25,0,0,0,.39-.87,1.14,1.14,0,0,0-.36-.87c-.49-.5-1.07-.41-1.72.25m-2.65,2.64c-.59.59-.64,1.13-.14,1.62a1.09,1.09,0,0,0,.9.33,1.43,1.43,0,0,0,.92-.44,1.23,1.23,0,0,0,.36-.86,1.15,1.15,0,0,0-.35-.86c-.49-.49-1.06-.42-1.69.21m8.35-3.25L54.23,37.7l2.3,2.3c.58.58.54,1.19-.1,1.84a1.76,1.76,0,0,1-1.16.53,1.47,1.47,0,0,1-1.16-.46l-2-2-1.36,1.36L53,43.52c.57.58.53,1.19-.12,1.84a1.69,1.69,0,0,1-1.15.53,1.51,1.51,0,0,1-1.16-.47l-2-2L47.2,44.73l2,2a1.24,1.24,0,0,1,.05,2l-1.67,1.66,1.38,1.38L50.69,50a3.72,3.72,0,0,0,.85-2.8,3.48,3.48,0,0,0,3-.78,3.18,3.18,0,0,0,.75-2.62,3.51,3.51,0,0,0,2.85-1,2.43,2.43,0,0,0,.75-2.21,3.92,3.92,0,0,0-1.17-2.1Z"/><path class="cls-2" d="M21,46.27a3,3,0,0,1-1.17.73,7.71,7.71,0,0,1-1.37,0l-8.56-.26v1.87l.84.06c0,2.14.4,3.62,1.21,4.42a3.61,3.61,0,0,0,5.28,0,3.73,3.73,0,0,0,.87-4.2,23.53,23.53,0,0,0,2.72-.18,4.07,4.07,0,0,0,1.57-1.08Zm-4.51,4.22a2,2,0,0,1-.58,1.27,1.87,1.87,0,0,1-1.25.58,1.62,1.62,0,0,1-1.23-.52,2.33,2.33,0,0,1-.65-1.46,12.91,12.91,0,0,1,0-1.63H15a1.41,1.41,0,0,1,1,.5,1.53,1.53,0,0,1,.47,1.26m2.82-14.6c-.59.59-.63,1.15-.12,1.66s1.16.5,1.81-.16a1.21,1.21,0,0,0,.37-.84,1.05,1.05,0,0,0-.33-.84c-.52-.52-1.09-.45-1.73.18m-2.66,2.66c-.59.59-.63,1.14-.11,1.66s1.15.49,1.8-.16a1.22,1.22,0,0,0,.38-.84,1.13,1.13,0,0,0-.34-.85c-.52-.51-1.09-.45-1.73.19m10.06,2a2.77,2.77,0,0,1-1.14.82c-.36.07-.77-.13-1.23-.58L22.4,38.9,21,40.29l1.91,1.91a1.69,1.69,0,0,1,.61,1,1.52,1.52,0,0,1-.57,1l-2.57,2.57,1.38,1.38,3-3a3,3,0,0,0,.78-1.86,3.43,3.43,0,0,0,1.18-.24A10.52,10.52,0,0,0,28.05,42ZM22.91,29.39c-.68.67-.74,1.29-.18,1.84a1.25,1.25,0,0,0,2-.08,1.33,1.33,0,0,0,.39-1,1.3,1.3,0,0,0-.39-1c-.55-.55-1.17-.5-1.83.17m4.16,2.47-3.42,3.42,1.57,1.18L27.65,34a10.5,10.5,0,0,1,1.28-1.16,1.81,1.81,0,0,1,1.61-.17c-.32,1.17-.57,2-.74,2.64-.29.93-.45,1.44-.48,1.52A13.91,13.91,0,0,1,26,41.19l1.39,1.38c1.25-1.25,2.05-2.11,2.41-2.56a9,9,0,0,0,1.55-3.14l1.36-5c-1.9-1.91-3.8-1.92-5.68,0m12.69-4.75a11.38,11.38,0,0,0-3-2.34,2.92,2.92,0,0,0-3.44.78,3.72,3.72,0,0,0-1.26,2.13A4.35,4.35,0,0,0,33.69,31,3.33,3.33,0,0,0,37,32.12a7.33,7.33,0,0,0,3-2,2.92,2.92,0,0,1,.87,2.23,3.36,3.36,0,0,1-1.07,2.21L38,36.26l1.55,1.2,1.8-1.8a4.89,4.89,0,0,0,1.46-3.41,4.4,4.4,0,0,0-1.31-3.4ZM37,30a1.5,1.5,0,0,1-1.83-.43,3.61,3.61,0,0,1-.91-1.24A1.32,1.32,0,0,1,34.67,27c.73-.72,1.55-.63,2.45.27l1.43,1.44A7,7,0,0,1,37,30M47.69,19.55c-1,1-1.85,1.16-2.48.53l-2-2-1.39,1.38,4.45,4.44a2.68,2.68,0,0,1,.8,2.15,3.12,3.12,0,0,1-1,2.09l-1.91,1.91,1.6,1.16,1.79-1.79A4.38,4.38,0,0,0,49,25.51a6.54,6.54,0,0,0-2-3.75,2.37,2.37,0,0,0,2.14-.83ZM43,8.48q-1,1-.15,1.8a1.24,1.24,0,0,0,2,0,1.36,1.36,0,0,0,.41-1,1.31,1.31,0,0,0-.39-1c-.55-.55-1.17-.49-1.85.19m8,2.68A3.86,3.86,0,0,0,47.48,10a3.78,3.78,0,0,0-1.94,1.07,3.16,3.16,0,0,0-1,2.26,3.13,3.13,0,0,0,1,2.26,2.53,2.53,0,0,0,3,.74c1-.82,1.85-1.59,2.57-2.31.7.69.79,1.29.28,1.8L47.22,20,48.6,21.4l4.16-4.16a3.19,3.19,0,0,0,1-2.22,2.75,2.75,0,0,0-.9-2.21Zm-2.28,2.66a4.6,4.6,0,0,1-.94.8c-.32.14-.68,0-1.07-.38s-.43-1,.18-1.66c.83-.83,1.78-.75,2.84.23Z"/></g></g></svg>