<svg xmlns="http://www.w3.org/2000/svg" viewBox="0 0 103.95 103.95"><defs><style>.cls-1{fill:#f0f;}.cls-2{fill:#fff;}</style></defs><title>s3</title><g id="Layer_2" data-name="Layer 2"><g id="Layer_1-2" data-name="Layer 1"><path class="cls-1" d="M91.94,0H23.49A23.49,23.49,0,0,0,0,23.49V91.94a12,12,0,0,0,20.46,8.48l79.95-80A12,12,0,0,0,91.94,0"/><path class="cls-2" d="M39.13,54.58l-5.47-.09v2l.9,0c0,2.23.42,3.77,1.26,4.61a4,4,0,0,0,2.81,1.26,3.66,3.66,0,0,0,2.79-1.15,4.1,4.1,0,0,0,1.26-2.75,3.4,3.4,0,0,0-1-2.79,3.49,3.49,0,0,0-2.51-1.14m1.55,3.83a1.74,1.74,0,0,1-.57,1.32,2.09,2.09,0,0,1-1.37.65,1.65,1.65,0,0,1-1.35-.51c-.49-.49-.71-1.58-.67-3.29l2.44.06a1.32,1.32,0,0,1,.93.45,1.83,1.83,0,0,1,.59,1.32M39.9,43.53c-.62.63-.67,1.21-.14,1.74a1.12,1.12,0,0,0,1,.33,1.61,1.61,0,0,0,1-.46,1.35,1.35,0,0,0,.41-.93,1.21,1.21,0,0,0-.37-.92q-.79-.8-1.83.24m3.52.65c-.62.62-.67,1.2-.14,1.73a1.15,1.15,0,0,0,1,.33,1.5,1.5,0,0,0,1-.46,1.38,1.38,0,0,0,.42-.92,1.18,1.18,0,0,0-.38-.92c-.52-.53-1.14-.45-1.83.24M40.61,47c-.63.63-.68,1.2-.15,1.73a1.11,1.11,0,0,0,.95.35,1.49,1.49,0,0,0,1-.47,1.3,1.3,0,0,0,.4-.91,1.19,1.19,0,0,0-.37-.92c-.52-.53-1.13-.46-1.8.22m10,1.84q-1.61,1.6-2.64.57l-2.12-2.12-1.47,1.47,4.71,4.72a2.78,2.78,0,0,1,.82,2.27,3.31,3.31,0,0,1-1,2.23l-2,2,1.7,1.23,1.9-1.91a4.64,4.64,0,0,0,1.46-4.16,7,7,0,0,0-2.15-4,2.47,2.47,0,0,0,2.28-.89ZM52.14,41l-1.48,1.47,2,2a1.8,1.8,0,0,1,.64,1.12,1.63,1.63,0,0,1-.6,1.1L50,49.38l1.46,1.47,3.15-3.16a2.67,2.67,0,0,0,.8-2.28,3.61,3.61,0,0,0-1.09-2.22Zm5.35,7.9c-.63.62-.67,1.21-.12,1.75a1.1,1.1,0,0,0,1,.33,1.62,1.62,0,0,0,.92-.48,1.34,1.34,0,0,0,.41-.9,1.1,1.1,0,0,0-.35-.9c-.54-.55-1.15-.48-1.83.2M54.66,51.7c-.62.62-.66,1.2-.11,1.75a1.14,1.14,0,0,0,1,.33,1.63,1.63,0,0,0,.93-.49,1.39,1.39,0,0,0,.41-.9,1.1,1.1,0,0,0-.35-.9C56,51,55.34,51,54.66,51.7m7.18-14.51a11.67,11.67,0,0,0-3.17-2.49,3.1,3.1,0,0,0-3.65.83,3.93,3.93,0,0,0-1.34,2.26c-.09,1.08.48,2.24,1.72,3.47a3.52,3.52,0,0,0,3.47,1.25A7.79,7.79,0,0,0,62,40.33,3.11,3.11,0,0,1,63,42.7,3.59,3.59,0,0,1,61.83,45L60,46.9l1.65,1.27,1.91-1.9a5.29,5.29,0,0,0,1.56-3.62A4.66,4.66,0,0,0,63.69,39Zm-3,3a1.6,1.6,0,0,1-1.94-.45,3.86,3.86,0,0,1-1-1.31A1.35,1.35,0,0,1,56.44,37c.77-.77,1.63-.67,2.6.29l1.52,1.52a7.71,7.71,0,0,1-1.68,1.38"/><path class="cls-2" d="M14.47,48.14,7.65,48v2l6.84.21a1.11,1.11,0,0,1,.75.31c.39.39.31.85-.24,1.4l-4.67,4.67L12,57.8l4.56-4.57a3.26,3.26,0,0,0,1-2,2.46,2.46,0,0,0-.77-2.09,3.33,3.33,0,0,0-2.35-1m6.31-2.06a5,5,0,0,1-1.49,1.15c-.38.07-.91-.23-1.59-.91L11.38,40,9.91,41.48l7,7a2.81,2.81,0,0,0,2,1,5.35,5.35,0,0,0,3.34-1.9Zm6.49-6.47-1.9,1.9a3.55,3.55,0,0,0-1.07-3,3.17,3.17,0,0,0-2.44-1,3.64,3.64,0,0,0-2.39,1.18c-1.83,1.83-1.83,3.67,0,5.49.09.1.68.61,1.76,1.54L20,46.85l1.46,1.47,1.27-1.27,1.77,1.44q2.49,2,5.13-.6c1.44-1.45,1.6-2.74.46-3.88a3.5,3.5,0,0,0-3.24-1.08l1.85-1.85Zm-3.58,2.47a3.47,3.47,0,0,1-1.06,2.17l-1.2-1.12q-1.87-1.87-.48-3.28a1.21,1.21,0,0,1,1.94,0,2.66,2.66,0,0,1,.8,2.25m4.55,4.72c-1,1-2.41.59-4.23-1.23a4.74,4.74,0,0,1,2.14-1.26,2.21,2.21,0,0,1,2.28.47c.61.61.55,1.29-.19,2m-5.86-15c-.71.71-.78,1.36-.19,1.94a1.35,1.35,0,0,0,2.16-.08,1.45,1.45,0,0,0,0-2.06c-.58-.59-1.23-.52-1.95.2M33,33.86c-1.24,1.2-2.23,1.43-3,.71l-2-2L26.55,34c.19.2.48.48.87.87l.87.87c.76.76,1,1.36.82,1.81a21.28,21.28,0,0,1-2.46,2.67l1.46,1.47,2.42-2.43a3.25,3.25,0,0,0,.85-2A4.24,4.24,0,0,0,34,35.81l.49-.48Zm-.17-13.72a1.31,1.31,0,0,0-.41-.95.89.89,0,0,0-.9-.22,1.73,1.73,0,0,0-.86.48c-.66.66-.72,1.25-.19,1.78a1.14,1.14,0,0,0,1,.34,1.54,1.54,0,0,0,1-.49,1.26,1.26,0,0,0,.4-.94m1.3,0c-.64.64-.69,1.22-.15,1.75a1.1,1.1,0,0,0,1,.35,1.66,1.66,0,0,0,1-.48,1.39,1.39,0,0,0,.41-.93,1.21,1.21,0,0,0-.37-.92c-.54-.53-1.15-.45-1.83.23M31.29,23c-.64.63-.68,1.22-.15,1.75a1.11,1.11,0,0,0,1,.33,1.58,1.58,0,0,0,1-.48,1.24,1.24,0,0,0,.38-.91,1.16,1.16,0,0,0-.36-.91c-.53-.53-1.14-.46-1.82.22m14.46-1.87c-1.14,1.15-2,1.42-2.61.83l-2.26-2.27-1.46,1.46,2.45,2.45c.61.61.57,1.26-.11,1.94a1.85,1.85,0,0,1-1.23.56,1.58,1.58,0,0,1-1.23-.49l-2.17-2.17-1.44,1.44,2.44,2.45A1.19,1.19,0,0,1,38,29.24a1.74,1.74,0,0,1-1.2.57,1.52,1.52,0,0,1-1.25-.47l-2.18-2.19L32,28.6l1.88,1.88a1.8,1.8,0,0,1,.67,1.5,2.67,2.67,0,0,1-.83,1.21l-1.35,1.35L33.81,36a20.07,20.07,0,0,0,1.82-2,3.85,3.85,0,0,0,.85-2.46,3.38,3.38,0,0,0,3-1,3.84,3.84,0,0,0,1.1-3.09,4.06,4.06,0,0,0,3-1,2.82,2.82,0,0,0,.72-2.64A1.91,1.91,0,0,0,46,23.6l.62-.44.57-.57ZM51.87,15a3,3,0,0,1-1.21.87c-.39.08-.82-.13-1.31-.62l-2-2-1.48,1.47,2,2a1.75,1.75,0,0,1,.64,1.12,1.63,1.63,0,0,1-.6,1.1L45.2,21.68l1.46,1.46L49.84,20a3.11,3.11,0,0,0,.82-2,3.33,3.33,0,0,0,1.25-.25,10.88,10.88,0,0,0,1.42-1.27ZM53,20.8c-.62.63-.67,1.21-.13,1.75a1.09,1.09,0,0,0,1,.31,1.61,1.61,0,0,0,.94-.48,1.34,1.34,0,0,0,.4-.9,1.13,1.13,0,0,0-.35-.89Q54,19.78,53,20.8m-2.82,2.82c-.63.63-.67,1.21-.13,1.75a1.08,1.08,0,0,0,1,.31A1.58,1.58,0,0,0,52,25.2a1.33,1.33,0,0,0,.4-.89,1.13,1.13,0,0,0-.35-.89c-.54-.54-1.15-.48-1.83.2M53.5,7.07,52,8.54l2,2a1.83,1.83,0,0,1,.65,1.11,1.63,1.63,0,0,1-.6,1.1l-2.69,2.69,1.46,1.47L56,13.79a2.7,2.7,0,0,0,.8-2.29,3.68,3.68,0,0,0-1.1-2.21Zm5,7.51a1.27,1.27,0,0,0-.4.92,1.17,1.17,0,0,0,.39.91q.78.8,1.8-.24c.64-.63.69-1.21.17-1.73s-1.26-.56-2,.14M55.73,17.4a1.27,1.27,0,0,0-.4.92,1.2,1.2,0,0,0,.38.91c.53.53,1.13.45,1.81-.23s.69-1.21.17-1.74-1.26-.56-2,.14m4.38.25a1.61,1.61,0,0,0-1,.5,1.13,1.13,0,0,0,0,1.81c.53.54,1.15.46,1.83-.23s.68-1.21.14-1.74a1.13,1.13,0,0,0-1-.34"/></g></g></svg>