<svg xmlns="http://www.w3.org/2000/svg" viewBox="0 0 18.36 17.53"><defs><style>.cls-1{fill:#ffab00;}</style></defs><title>starx</title><g id="Layer_2" data-name="Layer 2"><g id="Layer_1-2" data-name="Layer 1"><path class="cls-1" d="M13.17,10.66a.51.51,0,0,0-.14.45l.86,4.95L9.44,13.73a.54.54,0,0,0-.48,0L4.52,16.09l.84-5a.53.53,0,0,0-.15-.45l-3.6-3.5,5-.73A.52.52,0,0,0,7,6.17l2.2-4.51,2.24,4.5a.54.54,0,0,0,.39.28l5,.7Zm5.16-4a.51.51,0,0,0-.41-.34l-5.73-.82L9.62.28A.53.53,0,0,0,9.16,0a.49.49,0,0,0-.45.29L6.16,5.48.44,6.33A.51.51,0,0,0,0,6.68a.48.48,0,0,0,.13.52l4.15,4-1,5.7a.52.52,0,0,0,.5.6.48.48,0,0,0,.24-.06L9.2,14.76l5.13,2.68a.64.64,0,0,0,.23,0,.51.51,0,0,0,.51-.51.41.41,0,0,0,0-.11l-1-5.67,4.13-4a.52.52,0,0,0,.13-.53"/></g></g></svg>