<svg xmlns="http://www.w3.org/2000/svg" viewBox="0 0 51.91 51.91"><defs><style>.cls-1{fill:#fff;}.cls-2{fill:none;}</style></defs><title>userx</title><g id="Layer_2" data-name="Layer 2"><g id="Layer_1-2" data-name="Layer 1"><path class="cls-1" d="M20.2,15.91s0,0,0-.06c.25-5.37,4.06-5.94,5.69-5.94H26c2,0,5.46.87,5.69,5.94,0,0,0,.05,0,.06s.53,5.15-1.85,7.83A4.93,4.93,0,0,1,26,25.34h-.07a4.91,4.91,0,0,1-3.85-1.6c-2.37-2.67-1.87-7.78-1.86-7.83m5.63,11.45h.24a6.92,6.92,0,0,0,5.27-2.28c2.89-3.25,2.41-8.82,2.35-9.36-.18-4-2.07-5.9-3.63-6.79a8.37,8.37,0,0,0-4-1h-.13a8.33,8.33,0,0,0-4,1c-1.57.89-3.49,2.8-3.68,6.82-.05.54-.53,6.11,2.35,9.36a6.93,6.93,0,0,0,5.28,2.28"/><path class="cls-1" d="M41.33,36.6v0c0-.06,0-.12,0-.19,0-1.48-.14-4.95-3.39-6.06l-.07,0a21.67,21.67,0,0,1-6.22-2.83,1,1,0,0,0-1.16,1.65,23.35,23.35,0,0,0,6.84,3.13c1.74.62,1.94,2.48,2,4.19a1.15,1.15,0,0,0,0,.19A14.37,14.37,0,0,1,39.16,39,27.54,27.54,0,0,1,26,42a27.71,27.71,0,0,1-13.21-3.08,13.31,13.31,0,0,1-.16-2.31c0-.06,0-.12,0-.19.05-1.7.25-3.57,2-4.19a23.76,23.76,0,0,0,6.84-3.12,1,1,0,1,0-1.16-1.66,21.36,21.36,0,0,1-6.22,2.83l-.07,0c-3.25,1.11-3.35,4.58-3.39,6.05a1.15,1.15,0,0,1,0,.19v0A11.59,11.59,0,0,0,11,40a1,1,0,0,0,.39.48C11.58,40.61,17,44,26,44s14.39-3.43,14.61-3.57A1,1,0,0,0,41,40a11.71,11.71,0,0,0,.36-3.38"/><path class="cls-2" d="M0,26A26,26,0,1,0,26,0,26,26,0,0,0,0,26"/></g></g></svg>