<svg xmlns="http://www.w3.org/2000/svg" viewBox="0 0 30.76 36.16"><defs><style>.cls-1{fill:#fff;}</style></defs><title>usery</title><g id="Layer_2" data-name="Layer 2"><g id="Layer_1-2" data-name="Layer 1"><path class="cls-1" d="M9.62,8s0,0,0-.06C9.88,2.61,13.69,2,15.32,2h.09c2,0,5.46.87,5.69,5.94,0,0,0,0,0,.06s.53,5.15-1.85,7.83a4.9,4.9,0,0,1-3.86,1.6h-.07a4.89,4.89,0,0,1-3.85-1.6C9.11,13.19,9.62,8.08,9.62,8m5.63,11.45h.24a6.88,6.88,0,0,0,5.27-2.28c2.89-3.25,2.41-8.82,2.36-9.35-.19-4-2.08-5.9-3.64-6.79a8.26,8.26,0,0,0-4-1.06h-.13a8.39,8.39,0,0,0-4,1c-1.57.89-3.49,2.8-3.68,6.82,0,.53-.53,6.1,2.36,9.35a6.85,6.85,0,0,0,5.27,2.28"/><path class="cls-1" d="M30.75,28.72v-.21c-.05-1.48-.15-5-3.4-6.05l-.07,0a21.37,21.37,0,0,1-6.22-2.83,1,1,0,0,0-1.16,1.66,23.46,23.46,0,0,0,6.84,3.12c1.74.62,1.94,2.49,2,4.19a1.15,1.15,0,0,0,0,.19,13.31,13.31,0,0,1-.16,2.31,27.54,27.54,0,0,1-13.2,3.07A27.75,27.75,0,0,1,2.17,31.07,12.46,12.46,0,0,1,2,28.75v-.18c.06-1.71.25-3.58,2-4.2a23.78,23.78,0,0,0,6.83-3.12A1,1,0,1,0,9.69,19.6a21.68,21.68,0,0,1-6.21,2.83l-.08,0C.15,23.56.05,27,0,28.51a1.09,1.09,0,0,1,0,.18v0a11.66,11.66,0,0,0,.38,3.39,1,1,0,0,0,.39.47c.23.15,5.61,3.58,14.62,3.58S29.78,32.72,30,32.58a.94.94,0,0,0,.39-.47,11.8,11.8,0,0,0,.36-3.39"/></g></g></svg>